<svg width="288" height="156" viewBox="0 0 288 156" fill="none" xmlns="http://www.w3.org/2000/svg">
<g filter="url(#filter0_d_83_197)">
<rect y="4" width="288" height="152" rx="4" fill="#282623"/>
</g>
<path d="M17.224 67V54.4H19.528V67H17.224ZM21.9161 67V58.072H23.9501L24.1301 59.584C24.4061 59.056 24.8021 58.636 25.3181 58.324C25.8461 58.012 26.4641 57.856 27.1721 57.856C28.2761 57.856 29.1341 58.204 29.7461 58.9C30.3581 59.596 30.6641 60.616 30.6641 61.96V67H28.3601V62.176C28.3601 61.408 28.2041 60.82 27.8921 60.412C27.5801 60.004 27.0941 59.8 26.4341 59.8C25.7861 59.8 25.2521 60.028 24.8321 60.484C24.4241 60.94 24.2201 61.576 24.2201 62.392V67H21.9161ZM33.2813 67V59.998H32.0573V58.072H33.2813V57.028C33.2813 55.948 33.5513 55.18 34.0913 54.724C34.6433 54.268 35.3873 54.04 36.3233 54.04H37.3133V56.002H36.6833C36.2873 56.002 36.0053 56.08 35.8373 56.236C35.6693 56.392 35.5853 56.656 35.5853 57.028V58.072H37.5113V59.998H35.5853V67H33.2813ZM43.2685 67.216C42.4045 67.216 41.6245 67.018 40.9285 66.622C40.2445 66.226 39.6985 65.68 39.2905 64.984C38.8945 64.276 38.6965 63.46 38.6965 62.536C38.6965 61.612 38.9005 60.802 39.3085 60.106C39.7165 59.398 40.2625 58.846 40.9465 58.45C41.6425 58.054 42.4225 57.856 43.2865 57.856C44.1385 57.856 44.9065 58.054 45.5905 58.45C46.2865 58.846 46.8325 59.398 47.2285 60.106C47.6365 60.802 47.8405 61.612 47.8405 62.536C47.8405 63.46 47.6365 64.276 47.2285 64.984C46.8325 65.68 46.2865 66.226 45.5905 66.622C44.8945 67.018 44.1205 67.216 43.2685 67.216ZM43.2685 65.218C43.8685 65.218 44.3905 64.996 44.8345 64.552C45.2785 64.096 45.5005 63.424 45.5005 62.536C45.5005 61.648 45.2785 60.982 44.8345 60.538C44.3905 60.082 43.8745 59.854 43.2865 59.854C42.6745 59.854 42.1465 60.082 41.7025 60.538C41.2705 60.982 41.0545 61.648 41.0545 62.536C41.0545 63.424 41.2705 64.096 41.7025 64.552C42.1465 64.996 42.6685 65.218 43.2685 65.218ZM49.9005 67V58.072H51.9525L52.1685 59.746C52.4925 59.17 52.9305 58.714 53.4825 58.378C54.0465 58.03 54.7065 57.856 55.4625 57.856V60.286H54.8145C54.3105 60.286 53.8605 60.364 53.4645 60.52C53.0685 60.676 52.7565 60.946 52.5285 61.33C52.3125 61.714 52.2045 62.248 52.2045 62.932V67H49.9005ZM57.0372 67V58.072H59.0712L59.2692 59.278C59.5572 58.846 59.9352 58.504 60.4032 58.252C60.8832 57.988 61.4352 57.856 62.0592 57.856C63.4392 57.856 64.4172 58.39 64.9932 59.458C65.3172 58.966 65.7492 58.576 66.2892 58.288C66.8412 58 67.4412 57.856 68.0892 57.856C69.2532 57.856 70.1472 58.204 70.7712 58.9C71.3952 59.596 71.7072 60.616 71.7072 61.96V67H69.4032V62.176C69.4032 61.408 69.2532 60.82 68.9532 60.412C68.6652 60.004 68.2152 59.8 67.6032 59.8C66.9792 59.8 66.4752 60.028 66.0912 60.484C65.7192 60.94 65.5332 61.576 65.5332 62.392V67H63.2292V62.176C63.2292 61.408 63.0792 60.82 62.7792 60.412C62.4792 60.004 62.0172 59.8 61.3932 59.8C60.7812 59.8 60.2832 60.028 59.8992 60.484C59.5272 60.94 59.3412 61.576 59.3412 62.392V67H57.0372ZM76.9726 67.216C76.2046 67.216 75.5746 67.096 75.0826 66.856C74.5906 66.604 74.2246 66.274 73.9846 65.866C73.7446 65.458 73.6246 65.008 73.6246 64.516C73.6246 63.688 73.9486 63.016 74.5966 62.5C75.2446 61.984 76.2166 61.726 77.5126 61.726H79.7806V61.51C79.7806 60.898 79.6066 60.448 79.2586 60.16C78.9106 59.872 78.4786 59.728 77.9626 59.728C77.4946 59.728 77.0866 59.842 76.7386 60.07C76.3906 60.286 76.1746 60.61 76.0906 61.042H73.8406C73.9006 60.394 74.1166 59.83 74.4886 59.35C74.8726 58.87 75.3646 58.504 75.9646 58.252C76.5646 57.988 77.2366 57.856 77.9806 57.856C79.2526 57.856 80.2546 58.174 80.9866 58.81C81.7186 59.446 82.0846 60.346 82.0846 61.51V67H80.1226L79.9066 65.56C79.6426 66.04 79.2706 66.436 78.7906 66.748C78.3226 67.06 77.7166 67.216 76.9726 67.216ZM77.4946 65.416C78.1546 65.416 78.6646 65.2 79.0246 64.768C79.3966 64.336 79.6306 63.802 79.7266 63.166H77.7646C77.1526 63.166 76.7146 63.28 76.4506 63.508C76.1866 63.724 76.0546 63.994 76.0546 64.318C76.0546 64.666 76.1866 64.936 76.4506 65.128C76.7146 65.32 77.0626 65.416 77.4946 65.416ZM88.6573 67.216C87.7453 67.216 86.9413 67.018 86.2453 66.622C85.5493 66.226 84.9973 65.674 84.5893 64.966C84.1933 64.258 83.9953 63.448 83.9953 62.536C83.9953 61.624 84.1933 60.814 84.5893 60.106C84.9973 59.398 85.5493 58.846 86.2453 58.45C86.9413 58.054 87.7453 57.856 88.6573 57.856C89.7973 57.856 90.7573 58.156 91.5373 58.756C92.3173 59.344 92.8153 60.16 93.0313 61.204H90.6013C90.4813 60.772 90.2413 60.436 89.8813 60.196C89.5333 59.944 89.1193 59.818 88.6393 59.818C88.0033 59.818 87.4633 60.058 87.0193 60.538C86.5753 61.018 86.3533 61.684 86.3533 62.536C86.3533 63.388 86.5753 64.054 87.0193 64.534C87.4633 65.014 88.0033 65.254 88.6393 65.254C89.1193 65.254 89.5333 65.134 89.8813 64.894C90.2413 64.654 90.4813 64.312 90.6013 63.868H93.0313C92.8153 64.876 92.3173 65.686 91.5373 66.298C90.7573 66.91 89.7973 67.216 88.6573 67.216ZM96.3183 56.686C95.8983 56.686 95.5503 56.56 95.2743 56.308C95.0103 56.056 94.8783 55.738 94.8783 55.354C94.8783 54.97 95.0103 54.658 95.2743 54.418C95.5503 54.166 95.8983 54.04 96.3183 54.04C96.7383 54.04 97.0803 54.166 97.3443 54.418C97.6203 54.658 97.7583 54.97 97.7583 55.354C97.7583 55.738 97.6203 56.056 97.3443 56.308C97.0803 56.56 96.7383 56.686 96.3183 56.686ZM95.1663 67V58.072H97.4703V67H95.1663ZM104.159 67.216C103.295 67.216 102.515 67.018 101.819 66.622C101.135 66.226 100.589 65.68 100.181 64.984C99.7851 64.276 99.5871 63.46 99.5871 62.536C99.5871 61.612 99.7911 60.802 100.199 60.106C100.607 59.398 101.153 58.846 101.837 58.45C102.533 58.054 103.313 57.856 104.177 57.856C105.029 57.856 105.797 58.054 106.481 58.45C107.177 58.846 107.723 59.398 108.119 60.106C108.527 60.802 108.731 61.612 108.731 62.536C108.731 63.46 108.527 64.276 108.119 64.984C107.723 65.68 107.177 66.226 106.481 66.622C105.785 67.018 105.011 67.216 104.159 67.216ZM104.159 65.218C104.759 65.218 105.281 64.996 105.725 64.552C106.169 64.096 106.391 63.424 106.391 62.536C106.391 61.648 106.169 60.982 105.725 60.538C105.281 60.082 104.765 59.854 104.177 59.854C103.565 59.854 103.037 60.082 102.593 60.538C102.161 60.982 101.945 61.648 101.945 62.536C101.945 63.424 102.161 64.096 102.593 64.552C103.037 64.996 103.559 65.218 104.159 65.218ZM103.565 57.352V55.732L107.633 53.536V55.408L103.565 57.352ZM110.791 67V58.072H112.825L113.005 59.584C113.281 59.056 113.677 58.636 114.193 58.324C114.721 58.012 115.339 57.856 116.047 57.856C117.151 57.856 118.009 58.204 118.621 58.9C119.233 59.596 119.539 60.616 119.539 61.96V67H117.235V62.176C117.235 61.408 117.079 60.82 116.767 60.412C116.455 60.004 115.969 59.8 115.309 59.8C114.661 59.8 114.127 60.028 113.707 60.484C113.299 60.94 113.095 61.576 113.095 62.392V67H110.791ZM130.405 67.216C129.493 67.216 128.689 67.018 127.993 66.622C127.297 66.226 126.745 65.674 126.337 64.966C125.941 64.258 125.743 63.448 125.743 62.536C125.743 61.624 125.941 60.814 126.337 60.106C126.745 59.398 127.297 58.846 127.993 58.45C128.689 58.054 129.493 57.856 130.405 57.856C131.545 57.856 132.505 58.156 133.285 58.756C134.065 59.344 134.563 60.16 134.779 61.204H132.349C132.229 60.772 131.989 60.436 131.629 60.196C131.281 59.944 130.867 59.818 130.387 59.818C129.751 59.818 129.211 60.058 128.767 60.538C128.323 61.018 128.101 61.684 128.101 62.536C128.101 63.388 128.323 64.054 128.767 64.534C129.211 65.014 129.751 65.254 130.387 65.254C130.867 65.254 131.281 65.134 131.629 64.894C131.989 64.654 132.229 64.312 132.349 63.868H134.779C134.563 64.876 134.065 65.686 133.285 66.298C132.505 66.91 131.545 67.216 130.405 67.216ZM141.108 67.216C140.244 67.216 139.464 67.018 138.768 66.622C138.084 66.226 137.538 65.68 137.13 64.984C136.734 64.276 136.536 63.46 136.536 62.536C136.536 61.612 136.74 60.802 137.148 60.106C137.556 59.398 138.102 58.846 138.786 58.45C139.482 58.054 140.262 57.856 141.126 57.856C141.978 57.856 142.746 58.054 143.43 58.45C144.126 58.846 144.672 59.398 145.068 60.106C145.476 60.802 145.68 61.612 145.68 62.536C145.68 63.46 145.476 64.276 145.068 64.984C144.672 65.68 144.126 66.226 143.43 66.622C142.734 67.018 141.96 67.216 141.108 67.216ZM141.108 65.218C141.708 65.218 142.23 64.996 142.674 64.552C143.118 64.096 143.34 63.424 143.34 62.536C143.34 61.648 143.118 60.982 142.674 60.538C142.23 60.082 141.714 59.854 141.126 59.854C140.514 59.854 139.986 60.082 139.542 60.538C139.11 60.982 138.894 61.648 138.894 62.536C138.894 63.424 139.11 64.096 139.542 64.552C139.986 64.996 140.508 65.218 141.108 65.218ZM147.74 67V58.072H149.774L149.954 59.584C150.23 59.056 150.626 58.636 151.142 58.324C151.67 58.012 152.288 57.856 152.996 57.856C154.1 57.856 154.958 58.204 155.57 58.9C156.182 59.596 156.488 60.616 156.488 61.96V67H154.184V62.176C154.184 61.408 154.028 60.82 153.716 60.412C153.404 60.004 152.918 59.8 152.258 59.8C151.61 59.8 151.076 60.028 150.656 60.484C150.248 60.94 150.044 61.576 150.044 62.392V67H147.74ZM159.105 67V59.998H157.881V58.072H159.105V57.028C159.105 55.948 159.375 55.18 159.915 54.724C160.467 54.268 161.211 54.04 162.147 54.04H163.137V56.002H162.507C162.111 56.002 161.829 56.08 161.661 56.236C161.493 56.392 161.409 56.656 161.409 57.028V58.072H167.169V67H164.865V59.998H161.409V67H159.105ZM166.035 56.794C165.615 56.794 165.267 56.668 164.991 56.416C164.727 56.164 164.595 55.846 164.595 55.462C164.595 55.078 164.727 54.766 164.991 54.526C165.267 54.274 165.615 54.148 166.035 54.148C166.455 54.148 166.797 54.274 167.061 54.526C167.337 54.766 167.475 55.078 167.475 55.462C167.475 55.846 167.337 56.164 167.061 56.416C166.797 56.668 166.455 56.794 166.035 56.794ZM172.686 67.216C171.918 67.216 171.288 67.096 170.796 66.856C170.304 66.604 169.938 66.274 169.698 65.866C169.458 65.458 169.338 65.008 169.338 64.516C169.338 63.688 169.662 63.016 170.31 62.5C170.958 61.984 171.93 61.726 173.226 61.726H175.494V61.51C175.494 60.898 175.32 60.448 174.972 60.16C174.624 59.872 174.192 59.728 173.676 59.728C173.208 59.728 172.8 59.842 172.452 60.07C172.104 60.286 171.888 60.61 171.804 61.042H169.554C169.614 60.394 169.83 59.83 170.202 59.35C170.586 58.87 171.078 58.504 171.678 58.252C172.278 57.988 172.95 57.856 173.694 57.856C174.966 57.856 175.968 58.174 176.7 58.81C177.432 59.446 177.798 60.346 177.798 61.51V67H175.836L175.62 65.56C175.356 66.04 174.984 66.436 174.504 66.748C174.036 67.06 173.43 67.216 172.686 67.216ZM173.208 65.416C173.868 65.416 174.378 65.2 174.738 64.768C175.11 64.336 175.344 63.802 175.44 63.166H173.478C172.866 63.166 172.428 63.28 172.164 63.508C171.9 63.724 171.768 63.994 171.768 64.318C171.768 64.666 171.9 64.936 172.164 65.128C172.428 65.32 172.776 65.416 173.208 65.416ZM185.288 67.216C184.616 67.216 184.028 67.09 183.524 66.838C183.02 66.586 182.612 66.232 182.3 65.776L182.048 67H179.996V54.04H182.3V59.35C182.588 58.954 182.966 58.606 183.434 58.306C183.914 58.006 184.532 57.856 185.288 57.856C186.128 57.856 186.878 58.06 187.538 58.468C188.198 58.876 188.72 59.434 189.104 60.142C189.488 60.85 189.68 61.654 189.68 62.554C189.68 63.454 189.488 64.258 189.104 64.966C188.72 65.662 188.198 66.214 187.538 66.622C186.878 67.018 186.128 67.216 185.288 67.216ZM184.802 65.2C185.534 65.2 186.14 64.954 186.62 64.462C187.1 63.97 187.34 63.334 187.34 62.554C187.34 61.774 187.1 61.132 186.62 60.628C186.14 60.124 185.534 59.872 184.802 59.872C184.058 59.872 183.446 60.124 182.966 60.628C182.498 61.12 182.264 61.756 182.264 62.536C182.264 63.316 182.498 63.958 182.966 64.462C183.446 64.954 184.058 65.2 184.802 65.2ZM191.738 67V54.04H194.042V67H191.738ZM200.735 67.216C199.835 67.216 199.037 67.024 198.341 66.64C197.645 66.256 197.099 65.716 196.703 65.02C196.307 64.324 196.109 63.52 196.109 62.608C196.109 61.684 196.301 60.862 196.685 60.142C197.081 59.422 197.621 58.864 198.305 58.468C199.001 58.06 199.817 57.856 200.753 57.856C201.629 57.856 202.403 58.048 203.075 58.432C203.747 58.816 204.269 59.344 204.641 60.016C205.025 60.676 205.217 61.414 205.217 62.23C205.217 62.362 205.211 62.5 205.199 62.644C205.199 62.788 205.193 62.938 205.181 63.094H198.395C198.443 63.79 198.683 64.336 199.115 64.732C199.559 65.128 200.093 65.326 200.717 65.326C201.185 65.326 201.575 65.224 201.887 65.02C202.211 64.804 202.451 64.528 202.607 64.192H204.947C204.779 64.756 204.497 65.272 204.101 65.74C203.717 66.196 203.237 66.556 202.661 66.82C202.097 67.084 201.455 67.216 200.735 67.216ZM200.753 59.728C200.189 59.728 199.691 59.89 199.259 60.214C198.827 60.526 198.551 61.006 198.431 61.654H202.877C202.841 61.066 202.625 60.598 202.229 60.25C201.833 59.902 201.341 59.728 200.753 59.728Z" fill="white"/>
<path d="M16.994 94V84.2H18.478L23.392 91.578V84.2H24.876V94H23.392L18.478 86.622V94H16.994ZM33.1931 87.056V94H31.8771L31.7651 92.782C31.5504 93.2113 31.2331 93.552 30.8131 93.804C30.4024 94.0467 29.9264 94.168 29.3851 94.168C28.5451 94.168 27.8824 93.9067 27.3971 93.384C26.9211 92.8613 26.6831 92.082 26.6831 91.046V87.056H28.1531V90.892C28.1531 92.236 28.7038 92.908 29.8051 92.908C30.3558 92.908 30.8084 92.712 31.1631 92.32C31.5271 91.928 31.7091 91.368 31.7091 90.64V87.056H33.1931ZM38.3149 94.168C37.6336 94.168 37.0269 94.0187 36.4949 93.72C35.9722 93.412 35.5616 92.9873 35.2629 92.446C34.9642 91.9047 34.8149 91.2747 34.8149 90.556C34.8149 89.828 34.9596 89.1887 35.2489 88.638C35.5476 88.0873 35.9582 87.658 36.4809 87.35C37.0129 87.042 37.6289 86.888 38.3289 86.888C39.0102 86.888 39.6029 87.042 40.1069 87.35C40.6109 87.6487 41.0029 88.05 41.2829 88.554C41.5629 89.058 41.7029 89.6133 41.7029 90.22C41.7029 90.3133 41.6982 90.416 41.6889 90.528C41.6889 90.6307 41.6842 90.7473 41.6749 90.878H36.2709C36.3176 91.55 36.5369 92.0633 36.9289 92.418C37.3302 92.7633 37.7922 92.936 38.3149 92.936C38.7349 92.936 39.0849 92.8427 39.3649 92.656C39.6542 92.46 39.8689 92.1987 40.0089 91.872H41.4929C41.3062 92.5253 40.9329 93.0713 40.3729 93.51C39.8222 93.9487 39.1362 94.168 38.3149 94.168ZM38.3149 88.106C37.8202 88.106 37.3816 88.2553 36.9989 88.554C36.6162 88.8433 36.3829 89.282 36.2989 89.87H40.2189C40.1909 89.3287 39.9996 88.8993 39.6449 88.582C39.2902 88.2647 38.8469 88.106 38.3149 88.106ZM46.0147 94.168C45.1374 94.168 44.414 93.9533 43.8447 93.524C43.2754 93.0947 42.9487 92.5253 42.8647 91.816H44.3627C44.4374 92.1333 44.6147 92.4087 44.8947 92.642C45.1747 92.866 45.5434 92.978 46.0007 92.978C46.4487 92.978 46.7754 92.8847 46.9807 92.698C47.186 92.5113 47.2887 92.2967 47.2887 92.054C47.2887 91.6993 47.144 91.4613 46.8547 91.34C46.5747 91.2093 46.1827 91.0927 45.6787 90.99C45.2867 90.906 44.8947 90.794 44.5027 90.654C44.12 90.514 43.798 90.318 43.5367 90.066C43.2847 89.8047 43.1587 89.4547 43.1587 89.016C43.1587 88.4093 43.392 87.9053 43.8587 87.504C44.3254 87.0933 44.9787 86.888 45.8187 86.888C46.5934 86.888 47.2187 87.0747 47.6947 87.448C48.18 87.8213 48.4647 88.3487 48.5487 89.03H47.1207C47.074 88.7313 46.934 88.498 46.7007 88.33C46.4767 88.162 46.1734 88.078 45.7907 88.078C45.4174 88.078 45.128 88.1573 44.9227 88.316C44.7174 88.4653 44.6147 88.6613 44.6147 88.904C44.6147 89.1467 44.7547 89.338 45.0347 89.478C45.324 89.618 45.702 89.744 46.1687 89.856C46.6354 89.9587 47.0647 90.08 47.4567 90.22C47.858 90.3507 48.18 90.5467 48.4227 90.808C48.6654 91.0693 48.7867 91.452 48.7867 91.956C48.796 92.5907 48.5487 93.118 48.0447 93.538C47.55 93.958 46.8734 94.168 46.0147 94.168ZM53.059 94C52.3777 94 51.8363 93.8367 51.435 93.51C51.0337 93.174 50.833 92.5813 50.833 91.732V88.302H49.643V87.056H50.833L51.015 85.292H52.317V87.056H54.277V88.302H52.317V91.732C52.317 92.1147 52.3963 92.3807 52.555 92.53C52.723 92.67 53.0077 92.74 53.409 92.74H54.207V94H53.059ZM55.8071 94V87.056H57.1371L57.2631 88.372C57.5058 87.9147 57.8418 87.5553 58.2711 87.294C58.7098 87.0233 59.2371 86.888 59.8531 86.888V88.442H59.4471C59.0365 88.442 58.6678 88.512 58.3411 88.652C58.0238 88.7827 57.7671 89.0113 57.5711 89.338C57.3845 89.6553 57.2911 90.0987 57.2911 90.668V94H55.8071ZM63.4775 94.168C62.8895 94.168 62.4042 94.07 62.0215 93.874C61.6388 93.678 61.3542 93.4213 61.1675 93.104C60.9808 92.7773 60.8875 92.4227 60.8875 92.04C60.8875 91.368 61.1488 90.836 61.6715 90.444C62.1942 90.052 62.9408 89.856 63.9115 89.856H65.7315V89.73C65.7315 89.1887 65.5822 88.7827 65.2835 88.512C64.9942 88.2413 64.6162 88.106 64.1495 88.106C63.7388 88.106 63.3795 88.2087 63.0715 88.414C62.7728 88.61 62.5908 88.904 62.5255 89.296H61.0415C61.0882 88.792 61.2562 88.3627 61.5455 88.008C61.8442 87.644 62.2175 87.3687 62.6655 87.182C63.1228 86.986 63.6222 86.888 64.1635 86.888C65.1342 86.888 65.8855 87.1447 66.4175 87.658C66.9495 88.162 67.2155 88.8527 67.2155 89.73V94H65.9275L65.8015 92.81C65.6055 93.1927 65.3208 93.5147 64.9475 93.776C64.5742 94.0373 64.0842 94.168 63.4775 94.168ZM63.7715 92.964C64.1728 92.964 64.5088 92.8707 64.7795 92.684C65.0595 92.488 65.2742 92.2313 65.4235 91.914C65.5822 91.5967 65.6802 91.2467 65.7175 90.864H64.0655C63.4775 90.864 63.0575 90.9667 62.8055 91.172C62.5628 91.3773 62.4415 91.634 62.4415 91.942C62.4415 92.2593 62.5582 92.5113 62.7915 92.698C63.0342 92.8753 63.3608 92.964 63.7715 92.964ZM71.7178 94.168C70.8405 94.168 70.1171 93.9533 69.5478 93.524C68.9785 93.0947 68.6518 92.5253 68.5678 91.816H70.0658C70.1405 92.1333 70.3178 92.4087 70.5978 92.642C70.8778 92.866 71.2465 92.978 71.7038 92.978C72.1518 92.978 72.4785 92.8847 72.6838 92.698C72.8891 92.5113 72.9918 92.2967 72.9918 92.054C72.9918 91.6993 72.8471 91.4613 72.5578 91.34C72.2778 91.2093 71.8858 91.0927 71.3818 90.99C70.9898 90.906 70.5978 90.794 70.2058 90.654C69.8231 90.514 69.5011 90.318 69.2398 90.066C68.9878 89.8047 68.8618 89.4547 68.8618 89.016C68.8618 88.4093 69.0951 87.9053 69.5618 87.504C70.0285 87.0933 70.6818 86.888 71.5218 86.888C72.2965 86.888 72.9218 87.0747 73.3978 87.448C73.8831 87.8213 74.1678 88.3487 74.2518 89.03H72.8238C72.7771 88.7313 72.6371 88.498 72.4038 88.33C72.1798 88.162 71.8765 88.078 71.4938 88.078C71.1205 88.078 70.8311 88.1573 70.6258 88.316C70.4205 88.4653 70.3178 88.6613 70.3178 88.904C70.3178 89.1467 70.4578 89.338 70.7378 89.478C71.0271 89.618 71.4051 89.744 71.8718 89.856C72.3385 89.9587 72.7678 90.08 73.1598 90.22C73.5611 90.3507 73.8831 90.5467 74.1258 90.808C74.3685 91.0693 74.4898 91.452 74.4898 91.956C74.4991 92.5907 74.2518 93.118 73.7478 93.538C73.2531 93.958 72.5765 94.168 71.7178 94.168ZM79.9872 94V88.302H78.9932V87.056H79.9872V86.048C79.9872 85.292 80.1739 84.7507 80.5472 84.424C80.9299 84.088 81.4666 83.92 82.1572 83.92H82.8852V85.18H82.3812C82.0546 85.18 81.8212 85.25 81.6812 85.39C81.5412 85.5207 81.4712 85.7447 81.4712 86.062V87.056H83.0672V88.302H81.4712V94H79.9872ZM90.8611 87.056V94H89.5451L89.4331 92.782C89.2184 93.2113 88.9011 93.552 88.4811 93.804C88.0704 94.0467 87.5944 94.168 87.0531 94.168C86.2131 94.168 85.5504 93.9067 85.0651 93.384C84.5891 92.8613 84.3511 92.082 84.3511 91.046V87.056H85.8211V90.892C85.8211 92.236 86.3717 92.908 87.4731 92.908C88.0237 92.908 88.4764 92.712 88.8311 92.32C89.1951 91.928 89.3771 91.368 89.3771 90.64V87.056H90.8611ZM95.9829 94.168C95.3015 94.168 94.6949 94.0187 94.1629 93.72C93.6402 93.412 93.2295 92.9873 92.9309 92.446C92.6322 91.9047 92.4829 91.2747 92.4829 90.556C92.4829 89.828 92.6275 89.1887 92.9169 88.638C93.2155 88.0873 93.6262 87.658 94.1489 87.35C94.6809 87.042 95.2969 86.888 95.9969 86.888C96.6782 86.888 97.2709 87.042 97.7749 87.35C98.2789 87.6487 98.6709 88.05 98.9509 88.554C99.2309 89.058 99.3709 89.6133 99.3709 90.22C99.3709 90.3133 99.3662 90.416 99.3569 90.528C99.3569 90.6307 99.3522 90.7473 99.3429 90.878H93.9389C93.9855 91.55 94.2049 92.0633 94.5969 92.418C94.9982 92.7633 95.4602 92.936 95.9829 92.936C96.4029 92.936 96.7529 92.8427 97.0329 92.656C97.3222 92.46 97.5369 92.1987 97.6769 91.872H99.1609C98.9742 92.5253 98.6009 93.0713 98.0409 93.51C97.4902 93.9487 96.8042 94.168 95.9829 94.168ZM95.9829 88.106C95.4882 88.106 95.0495 88.2553 94.6669 88.554C94.2842 88.8433 94.0509 89.282 93.9669 89.87H97.8869C97.8589 89.3287 97.6675 88.8993 97.3129 88.582C96.9582 88.2647 96.5149 88.106 95.9829 88.106ZM100.911 94V87.056H102.227L102.339 88.274C102.553 87.8447 102.866 87.5087 103.277 87.266C103.697 87.014 104.177 86.888 104.719 86.888C105.559 86.888 106.217 87.1493 106.693 87.672C107.178 88.1947 107.421 88.974 107.421 90.01V94H105.951V90.164C105.951 88.82 105.4 88.148 104.299 88.148C103.748 88.148 103.291 88.344 102.927 88.736C102.572 89.128 102.395 89.688 102.395 90.416V94H100.911ZM112.08 94C111.399 94 110.858 93.8367 110.456 93.51C110.055 93.174 109.854 92.5813 109.854 91.732V88.302H108.664V87.056H109.854L110.036 85.292H111.338V87.056H113.298V88.302H111.338V91.732C111.338 92.1147 111.418 92.3807 111.576 92.53C111.744 92.67 112.029 92.74 112.43 92.74H113.228V94H112.08ZM117.899 94.168C117.218 94.168 116.611 94.0187 116.079 93.72C115.556 93.412 115.146 92.9873 114.847 92.446C114.548 91.9047 114.399 91.2747 114.399 90.556C114.399 89.828 114.544 89.1887 114.833 88.638C115.132 88.0873 115.542 87.658 116.065 87.35C116.597 87.042 117.213 86.888 117.913 86.888C118.594 86.888 119.187 87.042 119.691 87.35C120.195 87.6487 120.587 88.05 120.867 88.554C121.147 89.058 121.287 89.6133 121.287 90.22C121.287 90.3133 121.282 90.416 121.273 90.528C121.273 90.6307 121.268 90.7473 121.259 90.878H115.855C115.902 91.55 116.121 92.0633 116.513 92.418C116.914 92.7633 117.376 92.936 117.899 92.936C118.319 92.936 118.669 92.8427 118.949 92.656C119.238 92.46 119.453 92.1987 119.593 91.872H121.077C120.89 92.5253 120.517 93.0713 119.957 93.51C119.406 93.9487 118.72 94.168 117.899 94.168ZM117.899 88.106C117.404 88.106 116.966 88.2553 116.583 88.554C116.2 88.8433 115.967 89.282 115.883 89.87H119.803C119.775 89.3287 119.584 88.8993 119.229 88.582C118.874 88.2647 118.431 88.106 117.899 88.106ZM125.599 94.168C124.721 94.168 123.998 93.9533 123.429 93.524C122.859 93.0947 122.533 92.5253 122.449 91.816H123.947C124.021 92.1333 124.199 92.4087 124.479 92.642C124.759 92.866 125.127 92.978 125.585 92.978C126.033 92.978 126.359 92.8847 126.565 92.698C126.77 92.5113 126.873 92.2967 126.873 92.054C126.873 91.6993 126.728 91.4613 126.439 91.34C126.159 91.2093 125.767 91.0927 125.263 90.99C124.871 90.906 124.479 90.794 124.087 90.654C123.704 90.514 123.382 90.318 123.121 90.066C122.869 89.8047 122.743 89.4547 122.743 89.016C122.743 88.4093 122.976 87.9053 123.443 87.504C123.909 87.0933 124.563 86.888 125.403 86.888C126.177 86.888 126.803 87.0747 127.279 87.448C127.764 87.8213 128.049 88.3487 128.133 89.03H126.705C126.658 88.7313 126.518 88.498 126.285 88.33C126.061 88.162 125.757 88.078 125.375 88.078C125.001 88.078 124.712 88.1573 124.507 88.316C124.301 88.4653 124.199 88.6613 124.199 88.904C124.199 89.1467 124.339 89.338 124.619 89.478C124.908 89.618 125.286 89.744 125.753 89.856C126.219 89.9587 126.649 90.08 127.041 90.22C127.442 90.3507 127.764 90.5467 128.007 90.808C128.249 91.0693 128.371 91.452 128.371 91.956C128.38 92.5907 128.133 93.118 127.629 93.538C127.134 93.958 126.457 94.168 125.599 94.168ZM136.766 94.168C136.085 94.168 135.478 94.0187 134.946 93.72C134.423 93.412 134.013 92.9873 133.714 92.446C133.415 91.9047 133.266 91.2747 133.266 90.556C133.266 89.828 133.411 89.1887 133.7 88.638C133.999 88.0873 134.409 87.658 134.932 87.35C135.464 87.042 136.08 86.888 136.78 86.888C137.461 86.888 138.054 87.042 138.558 87.35C139.062 87.6487 139.454 88.05 139.734 88.554C140.014 89.058 140.154 89.6133 140.154 90.22C140.154 90.3133 140.149 90.416 140.14 90.528C140.14 90.6307 140.135 90.7473 140.126 90.878H134.722C134.769 91.55 134.988 92.0633 135.38 92.418C135.781 92.7633 136.243 92.936 136.766 92.936C137.186 92.936 137.536 92.8427 137.816 92.656C138.105 92.46 138.32 92.1987 138.46 91.872H139.944C139.757 92.5253 139.384 93.0713 138.824 93.51C138.273 93.9487 137.587 94.168 136.766 94.168ZM136.766 88.106C136.271 88.106 135.833 88.2553 135.45 88.554C135.067 88.8433 134.834 89.282 134.75 89.87H138.67C138.642 89.3287 138.451 88.8993 138.096 88.582C137.741 88.2647 137.298 88.106 136.766 88.106ZM144.466 94.168C143.589 94.168 142.865 93.9533 142.296 93.524C141.727 93.0947 141.4 92.5253 141.316 91.816H142.814C142.889 92.1333 143.066 92.4087 143.346 92.642C143.626 92.866 143.995 92.978 144.452 92.978C144.9 92.978 145.227 92.8847 145.432 92.698C145.637 92.5113 145.74 92.2967 145.74 92.054C145.74 91.6993 145.595 91.4613 145.306 91.34C145.026 91.2093 144.634 91.0927 144.13 90.99C143.738 90.906 143.346 90.794 142.954 90.654C142.571 90.514 142.249 90.318 141.988 90.066C141.736 89.8047 141.61 89.4547 141.61 89.016C141.61 88.4093 141.843 87.9053 142.31 87.504C142.777 87.0933 143.43 86.888 144.27 86.888C145.045 86.888 145.67 87.0747 146.146 87.448C146.631 87.8213 146.916 88.3487 147 89.03H145.572C145.525 88.7313 145.385 88.498 145.152 88.33C144.928 88.162 144.625 88.078 144.242 88.078C143.869 88.078 143.579 88.1573 143.374 88.316C143.169 88.4653 143.066 88.6613 143.066 88.904C143.066 89.1467 143.206 89.338 143.486 89.478C143.775 89.618 144.153 89.744 144.62 89.856C145.087 89.9587 145.516 90.08 145.908 90.22C146.309 90.3507 146.631 90.5467 146.874 90.808C147.117 91.0693 147.238 91.452 147.238 91.956C147.247 92.5907 147 93.118 146.496 93.538C146.001 93.958 145.325 94.168 144.466 94.168ZM151.51 94C150.829 94 150.287 93.8367 149.886 93.51C149.485 93.174 149.284 92.5813 149.284 91.732V88.302H148.094V87.056H149.284L149.466 85.292H150.768V87.056H152.728V88.302H150.768V91.732C150.768 92.1147 150.847 92.3807 151.006 92.53C151.174 92.67 151.459 92.74 151.86 92.74H152.658V94H151.51ZM156.61 94.168C156.022 94.168 155.537 94.07 155.154 93.874C154.772 93.678 154.487 93.4213 154.3 93.104C154.114 92.7773 154.02 92.4227 154.02 92.04C154.02 91.368 154.282 90.836 154.804 90.444C155.327 90.052 156.074 89.856 157.044 89.856H158.864V89.73C158.864 89.1887 158.715 88.7827 158.416 88.512C158.127 88.2413 157.749 88.106 157.282 88.106C156.872 88.106 156.512 88.2087 156.204 88.414C155.906 88.61 155.724 88.904 155.658 89.296H154.174C154.221 88.792 154.389 88.3627 154.678 88.008C154.977 87.644 155.35 87.3687 155.798 87.182C156.256 86.986 156.755 86.888 157.296 86.888C158.267 86.888 159.018 87.1447 159.55 87.658C160.082 88.162 160.348 88.8527 160.348 89.73V94H159.06L158.934 92.81C158.738 93.1927 158.454 93.5147 158.08 93.776C157.707 94.0373 157.217 94.168 156.61 94.168ZM156.904 92.964C157.306 92.964 157.642 92.8707 157.912 92.684C158.192 92.488 158.407 92.2313 158.556 91.914C158.715 91.5967 158.813 91.2467 158.85 90.864H157.198C156.61 90.864 156.19 90.9667 155.938 91.172C155.696 91.3773 155.574 91.634 155.574 91.942C155.574 92.2593 155.691 92.5113 155.924 92.698C156.167 92.8753 156.494 92.964 156.904 92.964ZM156.848 86.482V85.418L159.9 83.682V84.914L156.848 86.482ZM162.079 94V87.056H163.395L163.507 88.274C163.721 87.8447 164.034 87.5087 164.445 87.266C164.865 87.014 165.345 86.888 165.887 86.888C166.727 86.888 167.385 87.1493 167.861 87.672C168.346 88.1947 168.589 88.974 168.589 90.01V94H167.119V90.164C167.119 88.82 166.568 88.148 165.467 88.148C164.916 88.148 164.459 88.344 164.095 88.736C163.74 89.128 163.563 89.688 163.563 90.416V94H162.079ZM174.928 94V85.88L173.346 86.244V85.152L175.516 84.2H176.468V94H174.928ZM182.379 94.168C181.492 94.168 180.727 93.958 180.083 93.538C179.448 93.1087 178.958 92.516 178.613 91.76C178.277 90.9947 178.109 90.108 178.109 89.1C178.109 88.092 178.277 87.21 178.613 86.454C178.958 85.6887 179.448 85.096 180.083 84.676C180.727 84.2467 181.492 84.032 182.379 84.032C183.266 84.032 184.026 84.2467 184.661 84.676C185.296 85.096 185.781 85.6887 186.117 86.454C186.462 87.21 186.635 88.092 186.635 89.1C186.635 90.108 186.462 90.9947 186.117 91.76C185.781 92.516 185.296 93.1087 184.661 93.538C184.026 93.958 183.266 94.168 182.379 94.168ZM182.379 92.838C182.911 92.838 183.382 92.6887 183.793 92.39C184.213 92.0913 184.54 91.662 184.773 91.102C185.006 90.542 185.123 89.8747 185.123 89.1C185.123 88.3253 185.006 87.658 184.773 87.098C184.54 86.538 184.213 86.1087 183.793 85.81C183.382 85.5113 182.911 85.362 182.379 85.362C181.838 85.362 181.362 85.5113 180.951 85.81C180.54 86.1087 180.218 86.538 179.985 87.098C179.752 87.658 179.635 88.3253 179.635 89.1C179.635 89.8747 179.752 90.542 179.985 91.102C180.218 91.662 180.54 92.0913 180.951 92.39C181.362 92.6887 181.838 92.838 182.379 92.838ZM192.209 94.168C191.322 94.168 190.557 93.958 189.913 93.538C189.278 93.1087 188.788 92.516 188.443 91.76C188.107 90.9947 187.939 90.108 187.939 89.1C187.939 88.092 188.107 87.21 188.443 86.454C188.788 85.6887 189.278 85.096 189.913 84.676C190.557 84.2467 191.322 84.032 192.209 84.032C193.096 84.032 193.856 84.2467 194.491 84.676C195.126 85.096 195.611 85.6887 195.947 86.454C196.292 87.21 196.465 88.092 196.465 89.1C196.465 90.108 196.292 90.9947 195.947 91.76C195.611 92.516 195.126 93.1087 194.491 93.538C193.856 93.958 193.096 94.168 192.209 94.168ZM192.209 92.838C192.741 92.838 193.212 92.6887 193.623 92.39C194.043 92.0913 194.37 91.662 194.603 91.102C194.836 90.542 194.953 89.8747 194.953 89.1C194.953 88.3253 194.836 87.658 194.603 87.098C194.37 86.538 194.043 86.1087 193.623 85.81C193.212 85.5113 192.741 85.362 192.209 85.362C191.668 85.362 191.192 85.5113 190.781 85.81C190.37 86.1087 190.048 86.538 189.815 87.098C189.582 87.658 189.465 88.3253 189.465 89.1C189.465 89.8747 189.582 90.542 189.815 91.102C190.048 91.662 190.37 92.0913 190.781 92.39C191.192 92.6887 191.668 92.838 192.209 92.838ZM200.009 88.876C199.57 88.876 199.174 88.778 198.819 88.582C198.474 88.386 198.198 88.1107 197.993 87.756C197.788 87.392 197.685 86.958 197.685 86.454C197.685 85.9593 197.788 85.5347 197.993 85.18C198.198 84.816 198.478 84.536 198.833 84.34C199.188 84.144 199.584 84.046 200.023 84.046C200.452 84.046 200.84 84.144 201.185 84.34C201.54 84.536 201.82 84.816 202.025 85.18C202.23 85.5347 202.333 85.9593 202.333 86.454C202.333 86.958 202.23 87.392 202.025 87.756C201.82 88.1107 201.54 88.386 201.185 88.582C200.84 88.778 200.448 88.876 200.009 88.876ZM199.309 94L204.923 84.2H206.379L200.779 94H199.309ZM200.009 87.812C200.308 87.812 200.564 87.7 200.779 87.476C201.003 87.2427 201.115 86.902 201.115 86.454C201.115 86.006 201.008 85.67 200.793 85.446C200.578 85.2127 200.317 85.096 200.009 85.096C199.71 85.096 199.449 85.2127 199.225 85.446C199.001 85.67 198.889 86.006 198.889 86.454C198.889 86.902 198.996 87.2427 199.211 87.476C199.435 87.7 199.701 87.812 200.009 87.812ZM205.763 94.168C205.324 94.168 204.928 94.07 204.573 93.874C204.228 93.678 203.952 93.4027 203.747 93.048C203.542 92.684 203.439 92.25 203.439 91.746C203.439 91.2513 203.542 90.822 203.747 90.458C203.952 90.094 204.232 89.814 204.587 89.618C204.942 89.422 205.338 89.324 205.777 89.324C206.206 89.324 206.594 89.422 206.939 89.618C207.294 89.814 207.574 90.094 207.779 90.458C207.984 90.822 208.087 91.2513 208.087 91.746C208.087 92.25 207.984 92.684 207.779 93.048C207.574 93.4027 207.294 93.678 206.939 93.874C206.594 94.07 206.202 94.168 205.763 94.168ZM205.763 93.09C206.062 93.09 206.318 92.978 206.533 92.754C206.757 92.53 206.869 92.194 206.869 91.746C206.869 91.298 206.762 90.962 206.547 90.738C206.332 90.5047 206.071 90.388 205.763 90.388C205.464 90.388 205.203 90.5047 204.979 90.738C204.755 90.962 204.643 91.298 204.643 91.746C204.643 92.194 204.75 92.53 204.965 92.754C205.189 92.978 205.455 93.09 205.763 93.09ZM18.884 112L16.28 105.056H17.834L19.766 110.586L21.698 105.056H23.238L20.648 112H18.884ZM27.3501 112.168C26.6687 112.168 26.0621 112.019 25.5301 111.72C25.0074 111.412 24.5967 110.987 24.2981 110.446C23.9994 109.905 23.8501 109.275 23.8501 108.556C23.8501 107.828 23.9947 107.189 24.2841 106.638C24.5827 106.087 24.9934 105.658 25.5161 105.35C26.0481 105.042 26.6641 104.888 27.3641 104.888C28.0454 104.888 28.6381 105.042 29.1421 105.35C29.6461 105.649 30.0381 106.05 30.3181 106.554C30.5981 107.058 30.7381 107.613 30.7381 108.22C30.7381 108.313 30.7334 108.416 30.7241 108.528C30.7241 108.631 30.7194 108.747 30.7101 108.878H25.3061C25.3527 109.55 25.5721 110.063 25.9641 110.418C26.3654 110.763 26.8274 110.936 27.3501 110.936C27.7701 110.936 28.1201 110.843 28.4001 110.656C28.6894 110.46 28.9041 110.199 29.0441 109.872H30.5281C30.3414 110.525 29.9681 111.071 29.4081 111.51C28.8574 111.949 28.1714 112.168 27.3501 112.168ZM27.3501 106.106C26.8554 106.106 26.4167 106.255 26.0341 106.554C25.6514 106.843 25.4181 107.282 25.3341 107.87H29.2541C29.2261 107.329 29.0347 106.899 28.6801 106.582C28.3254 106.265 27.8821 106.106 27.3501 106.106ZM32.2778 112V105.056H33.6078L33.7338 106.372C33.9765 105.915 34.3125 105.555 34.7418 105.294C35.1805 105.023 35.7078 104.888 36.3238 104.888V106.442H35.9178C35.5072 106.442 35.1385 106.512 34.8118 106.652C34.4945 106.783 34.2378 107.011 34.0418 107.338C33.8552 107.655 33.7618 108.099 33.7618 108.668V112H32.2778ZM38.4362 103.74C38.1562 103.74 37.9229 103.656 37.7362 103.488C37.5589 103.311 37.4702 103.091 37.4702 102.83C37.4702 102.569 37.5589 102.354 37.7362 102.186C37.9229 102.009 38.1562 101.92 38.4362 101.92C38.7162 101.92 38.9449 102.009 39.1222 102.186C39.3089 102.354 39.4022 102.569 39.4022 102.83C39.4022 103.091 39.3089 103.311 39.1222 103.488C38.9449 103.656 38.7162 103.74 38.4362 103.74ZM37.6942 112V105.056H39.1782V112H37.6942ZM41.4872 112V106.302H40.4932V105.056H41.4872V104.048C41.4872 103.292 41.6739 102.751 42.0472 102.424C42.4299 102.088 42.9666 101.92 43.6572 101.92H44.3852V103.18H43.8812C43.5546 103.18 43.3212 103.25 43.1812 103.39C43.0412 103.521 42.9712 103.745 42.9712 104.062V105.056H47.3672V112H45.8832V106.302H42.9712V112H41.4872ZM46.6392 103.894C46.3592 103.894 46.1259 103.81 45.9392 103.642C45.7619 103.465 45.6732 103.241 45.6732 102.97C45.6732 102.709 45.7619 102.494 45.9392 102.326C46.1259 102.158 46.3592 102.074 46.6392 102.074C46.9192 102.074 47.1479 102.158 47.3252 102.326C47.5119 102.494 47.6052 102.709 47.6052 102.97C47.6052 103.241 47.5119 103.465 47.3252 103.642C47.1479 103.81 46.9192 103.894 46.6392 103.894ZM52.6303 112.168C51.949 112.168 51.3377 112.014 50.7963 111.706C50.2643 111.398 49.8443 110.973 49.5363 110.432C49.2377 109.881 49.0883 109.247 49.0883 108.528C49.0883 107.809 49.2377 107.179 49.5363 106.638C49.8443 106.087 50.2643 105.658 50.7963 105.35C51.3377 105.042 51.949 104.888 52.6303 104.888C53.489 104.888 54.2077 105.112 54.7863 105.56C55.3743 106.008 55.7523 106.615 55.9203 107.38H54.3663C54.273 106.997 54.0677 106.699 53.7503 106.484C53.433 106.269 53.0597 106.162 52.6303 106.162C52.2663 106.162 51.9303 106.255 51.6223 106.442C51.3143 106.619 51.067 106.885 50.8803 107.24C50.6937 107.585 50.6003 108.015 50.6003 108.528C50.6003 109.041 50.6937 109.475 50.8803 109.83C51.067 110.175 51.3143 110.441 51.6223 110.628C51.9303 110.815 52.2663 110.908 52.6303 110.908C53.0597 110.908 53.433 110.801 53.7503 110.586C54.0677 110.371 54.273 110.068 54.3663 109.676H55.9203C55.7617 110.423 55.3883 111.025 54.8003 111.482C54.2123 111.939 53.489 112.168 52.6303 112.168ZM59.8818 112.168C59.2938 112.168 58.8085 112.07 58.4258 111.874C58.0431 111.678 57.7585 111.421 57.5718 111.104C57.3851 110.777 57.2918 110.423 57.2918 110.04C57.2918 109.368 57.5531 108.836 58.0758 108.444C58.5985 108.052 59.3451 107.856 60.3158 107.856H62.1358V107.73C62.1358 107.189 61.9865 106.783 61.6878 106.512C61.3985 106.241 61.0205 106.106 60.5538 106.106C60.1431 106.106 59.7838 106.209 59.4758 106.414C59.1771 106.61 58.9951 106.904 58.9298 107.296H57.4458C57.4925 106.792 57.6605 106.363 57.9498 106.008C58.2485 105.644 58.6218 105.369 59.0698 105.182C59.5271 104.986 60.0265 104.888 60.5678 104.888C61.5385 104.888 62.2898 105.145 62.8218 105.658C63.3538 106.162 63.6198 106.853 63.6198 107.73V112H62.3318L62.2058 110.81C62.0098 111.193 61.7251 111.515 61.3518 111.776C60.9785 112.037 60.4885 112.168 59.8818 112.168ZM60.1758 110.964C60.5771 110.964 60.9131 110.871 61.1838 110.684C61.4638 110.488 61.6785 110.231 61.8278 109.914C61.9865 109.597 62.0845 109.247 62.1218 108.864H60.4698C59.8818 108.864 59.4618 108.967 59.2098 109.172C58.9671 109.377 58.8458 109.634 58.8458 109.942C58.8458 110.259 58.9625 110.511 59.1958 110.698C59.4385 110.875 59.7651 110.964 60.1758 110.964ZM68.5141 112.168C67.8421 112.168 67.2494 112.009 66.7361 111.692C66.2228 111.375 65.8214 110.941 65.5321 110.39C65.2428 109.839 65.0981 109.214 65.0981 108.514C65.0981 107.814 65.2428 107.193 65.5321 106.652C65.8214 106.101 66.2228 105.672 66.7361 105.364C67.2588 105.047 67.8561 104.888 68.5281 104.888C69.0788 104.888 69.5594 104.995 69.9701 105.21C70.3901 105.425 70.7168 105.728 70.9501 106.12V101.92H72.4341V112H71.1041L70.9501 110.922C70.7261 111.249 70.4181 111.538 70.0261 111.79C69.6341 112.042 69.1301 112.168 68.5141 112.168ZM68.7801 110.88C69.4148 110.88 69.9328 110.661 70.3341 110.222C70.7448 109.783 70.9501 109.219 70.9501 108.528C70.9501 107.828 70.7448 107.263 70.3341 106.834C69.9328 106.395 69.4148 106.176 68.7801 106.176C68.1454 106.176 67.6228 106.395 67.2121 106.834C66.8014 107.263 66.5961 107.828 66.5961 108.528C66.5961 108.985 66.6894 109.391 66.8761 109.746C67.0628 110.101 67.3194 110.381 67.6461 110.586C67.9821 110.782 68.3601 110.88 68.7801 110.88ZM76.6572 112.168C76.0692 112.168 75.5839 112.07 75.2012 111.874C74.8185 111.678 74.5339 111.421 74.3472 111.104C74.1605 110.777 74.0672 110.423 74.0672 110.04C74.0672 109.368 74.3285 108.836 74.8512 108.444C75.3739 108.052 76.1205 107.856 77.0912 107.856H78.9112V107.73C78.9112 107.189 78.7619 106.783 78.4632 106.512C78.1739 106.241 77.7959 106.106 77.3292 106.106C76.9185 106.106 76.5592 106.209 76.2512 106.414C75.9525 106.61 75.7705 106.904 75.7052 107.296H74.2212C74.2679 106.792 74.4359 106.363 74.7252 106.008C75.0239 105.644 75.3972 105.369 75.8452 105.182C76.3025 104.986 76.8019 104.888 77.3432 104.888C78.3139 104.888 79.0652 105.145 79.5972 105.658C80.1292 106.162 80.3952 106.853 80.3952 107.73V112H79.1072L78.9812 110.81C78.7852 111.193 78.5005 111.515 78.1272 111.776C77.7539 112.037 77.2639 112.168 76.6572 112.168ZM76.9512 110.964C77.3525 110.964 77.6885 110.871 77.9592 110.684C78.2392 110.488 78.4539 110.231 78.6032 109.914C78.7619 109.597 78.8599 109.247 78.8972 108.864H77.2452C76.6572 108.864 76.2372 108.967 75.9852 109.172C75.7425 109.377 75.6212 109.634 75.6212 109.942C75.6212 110.259 75.7379 110.511 75.9712 110.698C76.2139 110.875 76.5405 110.964 76.9512 110.964ZM84.8975 112.168C84.0202 112.168 83.2968 111.953 82.7275 111.524C82.1582 111.095 81.8315 110.525 81.7475 109.816H83.2455C83.3202 110.133 83.4975 110.409 83.7775 110.642C84.0575 110.866 84.4262 110.978 84.8835 110.978C85.3315 110.978 85.6582 110.885 85.8635 110.698C86.0688 110.511 86.1715 110.297 86.1715 110.054C86.1715 109.699 86.0268 109.461 85.7375 109.34C85.4575 109.209 85.0655 109.093 84.5615 108.99C84.1695 108.906 83.7775 108.794 83.3855 108.654C83.0028 108.514 82.6808 108.318 82.4195 108.066C82.1675 107.805 82.0415 107.455 82.0415 107.016C82.0415 106.409 82.2748 105.905 82.7415 105.504C83.2082 105.093 83.8615 104.888 84.7015 104.888C85.4762 104.888 86.1015 105.075 86.5775 105.448C87.0628 105.821 87.3475 106.349 87.4315 107.03H86.0035C85.9568 106.731 85.8168 106.498 85.5835 106.33C85.3595 106.162 85.0562 106.078 84.6735 106.078C84.3002 106.078 84.0108 106.157 83.8055 106.316C83.6002 106.465 83.4975 106.661 83.4975 106.904C83.4975 107.147 83.6375 107.338 83.9175 107.478C84.2068 107.618 84.5848 107.744 85.0515 107.856C85.5182 107.959 85.9475 108.08 86.3395 108.22C86.7408 108.351 87.0628 108.547 87.3055 108.808C87.5482 109.069 87.6695 109.452 87.6695 109.956C87.6788 110.591 87.4315 111.118 86.9275 111.538C86.4328 111.958 85.7562 112.168 84.8975 112.168ZM93.6289 115.08L95.2949 111.426H94.8889L92.1449 105.056H93.7549L95.8829 110.194L98.1089 105.056H99.6769L95.1969 115.08H93.6289ZM107.714 112.168C107.033 112.168 106.422 112.014 105.88 111.706C105.348 111.398 104.928 110.973 104.62 110.432C104.322 109.881 104.172 109.247 104.172 108.528C104.172 107.809 104.322 107.179 104.62 106.638C104.928 106.087 105.348 105.658 105.88 105.35C106.422 105.042 107.033 104.888 107.714 104.888C108.573 104.888 109.292 105.112 109.87 105.56C110.458 106.008 110.836 106.615 111.004 107.38H109.45C109.357 106.997 109.152 106.699 108.834 106.484C108.517 106.269 108.144 106.162 107.714 106.162C107.35 106.162 107.014 106.255 106.706 106.442C106.398 106.619 106.151 106.885 105.964 107.24C105.778 107.585 105.684 108.015 105.684 108.528C105.684 109.041 105.778 109.475 105.964 109.83C106.151 110.175 106.398 110.441 106.706 110.628C107.014 110.815 107.35 110.908 107.714 110.908C108.144 110.908 108.517 110.801 108.834 110.586C109.152 110.371 109.357 110.068 109.45 109.676H111.004C110.846 110.423 110.472 111.025 109.884 111.482C109.296 111.939 108.573 112.168 107.714 112.168ZM115.862 112.168C115.199 112.168 114.602 112.019 114.07 111.72C113.547 111.412 113.132 110.987 112.824 110.446C112.516 109.895 112.362 109.256 112.362 108.528C112.362 107.8 112.516 107.165 112.824 106.624C113.141 106.073 113.566 105.649 114.098 105.35C114.63 105.042 115.222 104.888 115.876 104.888C116.538 104.888 117.131 105.042 117.654 105.35C118.186 105.649 118.606 106.073 118.914 106.624C119.231 107.165 119.39 107.8 119.39 108.528C119.39 109.256 119.231 109.895 118.914 110.446C118.606 110.987 118.186 111.412 117.654 111.72C117.122 112.019 116.524 112.168 115.862 112.168ZM115.862 110.894C116.216 110.894 116.543 110.805 116.842 110.628C117.15 110.451 117.397 110.189 117.584 109.844C117.77 109.489 117.864 109.051 117.864 108.528C117.864 108.005 117.77 107.571 117.584 107.226C117.406 106.871 117.164 106.605 116.856 106.428C116.557 106.251 116.23 106.162 115.876 106.162C115.521 106.162 115.19 106.251 114.882 106.428C114.583 106.605 114.34 106.871 114.154 107.226C113.967 107.571 113.874 108.005 113.874 108.528C113.874 109.051 113.967 109.489 114.154 109.844C114.34 110.189 114.583 110.451 114.882 110.628C115.18 110.805 115.507 110.894 115.862 110.894ZM120.995 112V105.056H122.311L122.423 106.274C122.637 105.845 122.95 105.509 123.361 105.266C123.781 105.014 124.261 104.888 124.803 104.888C125.643 104.888 126.301 105.149 126.777 105.672C127.262 106.195 127.505 106.974 127.505 108.01V112H126.035V108.164C126.035 106.82 125.484 106.148 124.383 106.148C123.832 106.148 123.375 106.344 123.011 106.736C122.656 107.128 122.479 107.688 122.479 108.416V112H120.995ZM132.164 112C131.483 112 130.942 111.837 130.54 111.51C130.139 111.174 129.938 110.581 129.938 109.732V106.302H128.748V105.056H129.938L130.12 103.292H131.422V105.056H133.382V106.302H131.422V109.732C131.422 110.115 131.502 110.381 131.66 110.53C131.828 110.67 132.113 110.74 132.514 110.74H133.312V112H132.164ZM135.753 103.74C135.473 103.74 135.239 103.656 135.053 103.488C134.875 103.311 134.787 103.091 134.787 102.83C134.787 102.569 134.875 102.354 135.053 102.186C135.239 102.009 135.473 101.92 135.753 101.92C136.033 101.92 136.261 102.009 136.439 102.186C136.625 102.354 136.719 102.569 136.719 102.83C136.719 103.091 136.625 103.311 136.439 103.488C136.261 103.656 136.033 103.74 135.753 103.74ZM135.011 112V105.056H136.495V112H135.011ZM138.454 112V105.056H139.77L139.882 106.274C140.096 105.845 140.409 105.509 140.82 105.266C141.24 105.014 141.72 104.888 142.262 104.888C143.102 104.888 143.76 105.149 144.236 105.672C144.721 106.195 144.964 106.974 144.964 108.01V112H143.494V108.164C143.494 106.82 142.943 106.148 141.842 106.148C141.291 106.148 140.834 106.344 140.47 106.736C140.115 107.128 139.938 107.688 139.938 108.416V112H138.454ZM153.095 105.056V112H151.779L151.667 110.782C151.453 111.211 151.135 111.552 150.715 111.804C150.305 112.047 149.829 112.168 149.287 112.168C148.447 112.168 147.785 111.907 147.299 111.384C146.823 110.861 146.585 110.082 146.585 109.046V105.056H148.055V108.892C148.055 110.236 148.606 110.908 149.707 110.908C150.258 110.908 150.711 110.712 151.065 110.32C151.429 109.928 151.611 109.368 151.611 108.64V105.056H153.095ZM157.321 112.168C156.733 112.168 156.248 112.07 155.865 111.874C155.483 111.678 155.198 111.421 155.011 111.104C154.825 110.777 154.731 110.423 154.731 110.04C154.731 109.368 154.993 108.836 155.515 108.444C156.038 108.052 156.785 107.856 157.755 107.856H159.575V107.73C159.575 107.189 159.426 106.783 159.127 106.512C158.838 106.241 158.46 106.106 157.993 106.106C157.583 106.106 157.223 106.209 156.915 106.414C156.617 106.61 156.435 106.904 156.369 107.296H154.885C154.932 106.792 155.1 106.363 155.389 106.008C155.688 105.644 156.061 105.369 156.509 105.182C156.967 104.986 157.466 104.888 158.007 104.888C158.978 104.888 159.729 105.145 160.261 105.658C160.793 106.162 161.059 106.853 161.059 107.73V112H159.771L159.645 110.81C159.449 111.193 159.165 111.515 158.791 111.776C158.418 112.037 157.928 112.168 157.321 112.168ZM157.615 110.964C158.017 110.964 158.353 110.871 158.623 110.684C158.903 110.488 159.118 110.231 159.267 109.914C159.426 109.597 159.524 109.247 159.561 108.864H157.909C157.321 108.864 156.901 108.967 156.649 109.172C156.407 109.377 156.285 109.634 156.285 109.942C156.285 110.259 156.402 110.511 156.635 110.698C156.878 110.875 157.205 110.964 157.615 110.964ZM162.79 112V105.056H164.106L164.232 106.036C164.456 105.681 164.75 105.401 165.114 105.196C165.487 104.991 165.916 104.888 166.402 104.888C167.503 104.888 168.268 105.322 168.698 106.19C168.95 105.789 169.286 105.471 169.706 105.238C170.135 105.005 170.597 104.888 171.092 104.888C171.96 104.888 172.641 105.149 173.136 105.672C173.63 106.195 173.878 106.974 173.878 108.01V112H172.394V108.164C172.394 106.82 171.88 106.148 170.854 106.148C170.331 106.148 169.902 106.344 169.566 106.736C169.239 107.128 169.076 107.688 169.076 108.416V112H167.592V108.164C167.592 106.82 167.074 106.148 166.038 106.148C165.524 106.148 165.1 106.344 164.764 106.736C164.437 107.128 164.274 107.688 164.274 108.416V112H162.79ZM178.862 112.168C178.199 112.168 177.602 112.019 177.07 111.72C176.547 111.412 176.132 110.987 175.824 110.446C175.516 109.895 175.362 109.256 175.362 108.528C175.362 107.8 175.516 107.165 175.824 106.624C176.141 106.073 176.566 105.649 177.098 105.35C177.63 105.042 178.222 104.888 178.876 104.888C179.538 104.888 180.131 105.042 180.654 105.35C181.186 105.649 181.606 106.073 181.914 106.624C182.231 107.165 182.39 107.8 182.39 108.528C182.39 109.256 182.231 109.895 181.914 110.446C181.606 110.987 181.186 111.412 180.654 111.72C180.122 112.019 179.524 112.168 178.862 112.168ZM178.862 110.894C179.216 110.894 179.543 110.805 179.842 110.628C180.15 110.451 180.397 110.189 180.584 109.844C180.77 109.489 180.864 109.051 180.864 108.528C180.864 108.005 180.77 107.571 180.584 107.226C180.406 106.871 180.164 106.605 179.856 106.428C179.557 106.251 179.23 106.162 178.876 106.162C178.521 106.162 178.19 106.251 177.882 106.428C177.583 106.605 177.34 106.871 177.154 107.226C176.967 107.571 176.874 108.005 176.874 108.528C176.874 109.051 176.967 109.489 177.154 109.844C177.34 110.189 177.583 110.451 177.882 110.628C178.18 110.805 178.507 110.894 178.862 110.894ZM186.767 112.168C185.889 112.168 185.166 111.953 184.597 111.524C184.027 111.095 183.701 110.525 183.617 109.816H185.115C185.189 110.133 185.367 110.409 185.647 110.642C185.927 110.866 186.295 110.978 186.753 110.978C187.201 110.978 187.527 110.885 187.733 110.698C187.938 110.511 188.041 110.297 188.041 110.054C188.041 109.699 187.896 109.461 187.607 109.34C187.327 109.209 186.935 109.093 186.431 108.99C186.039 108.906 185.647 108.794 185.255 108.654C184.872 108.514 184.55 108.318 184.289 108.066C184.037 107.805 183.911 107.455 183.911 107.016C183.911 106.409 184.144 105.905 184.611 105.504C185.077 105.093 185.731 104.888 186.571 104.888C187.345 104.888 187.971 105.075 188.447 105.448C188.932 105.821 189.217 106.349 189.301 107.03H187.873C187.826 106.731 187.686 106.498 187.453 106.33C187.229 106.162 186.925 106.078 186.543 106.078C186.169 106.078 185.88 106.157 185.675 106.316C185.469 106.465 185.367 106.661 185.367 106.904C185.367 107.147 185.507 107.338 185.787 107.478C186.076 107.618 186.454 107.744 186.921 107.856C187.387 107.959 187.817 108.08 188.209 108.22C188.61 108.351 188.932 108.547 189.175 108.808C189.417 109.069 189.539 109.452 189.539 109.956C189.548 110.591 189.301 111.118 188.797 111.538C188.302 111.958 187.625 112.168 186.767 112.168ZM197.038 112.168C196.45 112.168 195.965 112.07 195.582 111.874C195.199 111.678 194.915 111.421 194.728 111.104C194.541 110.777 194.448 110.423 194.448 110.04C194.448 109.368 194.709 108.836 195.232 108.444C195.755 108.052 196.501 107.856 197.472 107.856H199.292V107.73C199.292 107.189 199.143 106.783 198.844 106.512C198.555 106.241 198.177 106.106 197.71 106.106C197.299 106.106 196.94 106.209 196.632 106.414C196.333 106.61 196.151 106.904 196.086 107.296H194.602C194.649 106.792 194.817 106.363 195.106 106.008C195.405 105.644 195.778 105.369 196.226 105.182C196.683 104.986 197.183 104.888 197.724 104.888C198.695 104.888 199.446 105.145 199.978 105.658C200.51 106.162 200.776 106.853 200.776 107.73V112H199.488L199.362 110.81C199.166 111.193 198.881 111.515 198.508 111.776C198.135 112.037 197.645 112.168 197.038 112.168ZM197.332 110.964C197.733 110.964 198.069 110.871 198.34 110.684C198.62 110.488 198.835 110.231 198.984 109.914C199.143 109.597 199.241 109.247 199.278 108.864H197.626C197.038 108.864 196.618 108.967 196.366 109.172C196.123 109.377 196.002 109.634 196.002 109.942C196.002 110.259 196.119 110.511 196.352 110.698C196.595 110.875 196.921 110.964 197.332 110.964ZM208.89 105.056V112H207.574L207.462 110.782C207.248 111.211 206.93 111.552 206.51 111.804C206.1 112.047 205.624 112.168 205.082 112.168C204.242 112.168 203.58 111.907 203.094 111.384C202.618 110.861 202.38 110.082 202.38 109.046V105.056H203.85V108.892C203.85 110.236 204.401 110.908 205.502 110.908C206.053 110.908 206.506 110.712 206.86 110.32C207.224 109.928 207.406 109.368 207.406 108.64V105.056H208.89ZM213.928 112.168C213.256 112.168 212.664 112.009 212.15 111.692C211.637 111.375 211.236 110.941 210.946 110.39C210.657 109.839 210.512 109.214 210.512 108.514C210.512 107.814 210.657 107.193 210.946 106.652C211.236 106.101 211.637 105.672 212.15 105.364C212.673 105.047 213.27 104.888 213.942 104.888C214.493 104.888 214.974 104.995 215.384 105.21C215.804 105.425 216.131 105.728 216.364 106.12V101.92H217.848V112H216.518L216.364 110.922C216.14 111.249 215.832 111.538 215.44 111.79C215.048 112.042 214.544 112.168 213.928 112.168ZM214.194 110.88C214.829 110.88 215.347 110.661 215.748 110.222C216.159 109.783 216.364 109.219 216.364 108.528C216.364 107.828 216.159 107.263 215.748 106.834C215.347 106.395 214.829 106.176 214.194 106.176C213.56 106.176 213.037 106.395 212.626 106.834C212.216 107.263 212.01 107.828 212.01 108.528C212.01 108.985 212.104 109.391 212.29 109.746C212.477 110.101 212.734 110.381 213.06 110.586C213.396 110.782 213.774 110.88 214.194 110.88ZM220.559 103.74C220.279 103.74 220.046 103.656 219.859 103.488C219.682 103.311 219.593 103.091 219.593 102.83C219.593 102.569 219.682 102.354 219.859 102.186C220.046 102.009 220.279 101.92 220.559 101.92C220.839 101.92 221.068 102.009 221.245 102.186C221.432 102.354 221.525 102.569 221.525 102.83C221.525 103.091 221.432 103.311 221.245 103.488C221.068 103.656 220.839 103.74 220.559 103.74ZM219.817 112V105.056H221.301V112H219.817ZM226.172 112C225.491 112 224.95 111.837 224.548 111.51C224.147 111.174 223.946 110.581 223.946 109.732V106.302H222.756V105.056H223.946L224.128 103.292H225.43V105.056H227.39V106.302H225.43V109.732C225.43 110.115 225.51 110.381 225.668 110.53C225.836 110.67 226.121 110.74 226.522 110.74H227.32V112H226.172ZM231.272 112.168C230.684 112.168 230.199 112.07 229.816 111.874C229.434 111.678 229.149 111.421 228.962 111.104C228.776 110.777 228.682 110.423 228.682 110.04C228.682 109.368 228.944 108.836 229.466 108.444C229.989 108.052 230.736 107.856 231.706 107.856H233.526V107.73C233.526 107.189 233.377 106.783 233.078 106.512C232.789 106.241 232.411 106.106 231.944 106.106C231.534 106.106 231.174 106.209 230.866 106.414C230.568 106.61 230.386 106.904 230.32 107.296H228.836C228.883 106.792 229.051 106.363 229.34 106.008C229.639 105.644 230.012 105.369 230.46 105.182C230.918 104.986 231.417 104.888 231.958 104.888C232.929 104.888 233.68 105.145 234.212 105.658C234.744 106.162 235.01 106.853 235.01 107.73V112H233.722L233.596 110.81C233.4 111.193 233.116 111.515 232.742 111.776C232.369 112.037 231.879 112.168 231.272 112.168ZM231.566 110.964C231.968 110.964 232.304 110.871 232.574 110.684C232.854 110.488 233.069 110.231 233.218 109.914C233.377 109.597 233.475 109.247 233.512 108.864H231.86C231.272 108.864 230.852 108.967 230.6 109.172C230.358 109.377 230.236 109.634 230.236 109.942C230.236 110.259 230.353 110.511 230.586 110.698C230.829 110.875 231.156 110.964 231.566 110.964ZM236.741 112V105.056H238.057L238.169 106.274C238.383 105.845 238.696 105.509 239.107 105.266C239.527 105.014 240.007 104.888 240.549 104.888C241.389 104.888 242.047 105.149 242.523 105.672C243.008 106.195 243.251 106.974 243.251 108.01V112H241.781V108.164C241.781 106.82 241.23 106.148 240.129 106.148C239.578 106.148 239.121 106.344 238.757 106.736C238.402 107.128 238.225 107.688 238.225 108.416V112H236.741ZM248.163 112.168C247.491 112.168 246.898 112.009 246.385 111.692C245.871 111.375 245.47 110.941 245.181 110.39C244.891 109.839 244.747 109.214 244.747 108.514C244.747 107.814 244.891 107.193 245.181 106.652C245.47 106.101 245.871 105.672 246.385 105.364C246.907 105.047 247.505 104.888 248.177 104.888C248.727 104.888 249.208 104.995 249.619 105.21C250.039 105.425 250.365 105.728 250.599 106.12V101.92H252.083V112H250.753L250.599 110.922C250.375 111.249 250.067 111.538 249.675 111.79C249.283 112.042 248.779 112.168 248.163 112.168ZM248.429 110.88C249.063 110.88 249.581 110.661 249.983 110.222C250.393 109.783 250.599 109.219 250.599 108.528C250.599 107.828 250.393 107.263 249.983 106.834C249.581 106.395 249.063 106.176 248.429 106.176C247.794 106.176 247.271 106.395 246.861 106.834C246.45 107.263 246.245 107.828 246.245 108.528C246.245 108.985 246.338 109.391 246.525 109.746C246.711 110.101 246.968 110.381 247.295 110.586C247.631 110.782 248.009 110.88 248.429 110.88ZM257.202 112.168C256.539 112.168 255.942 112.019 255.41 111.72C254.887 111.412 254.472 110.987 254.164 110.446C253.856 109.895 253.702 109.256 253.702 108.528C253.702 107.8 253.856 107.165 254.164 106.624C254.481 106.073 254.906 105.649 255.438 105.35C255.97 105.042 256.562 104.888 257.216 104.888C257.878 104.888 258.471 105.042 258.994 105.35C259.526 105.649 259.946 106.073 260.254 106.624C260.571 107.165 260.73 107.8 260.73 108.528C260.73 109.256 260.571 109.895 260.254 110.446C259.946 110.987 259.526 111.412 258.994 111.72C258.462 112.019 257.864 112.168 257.202 112.168ZM257.202 110.894C257.556 110.894 257.883 110.805 258.182 110.628C258.49 110.451 258.737 110.189 258.924 109.844C259.11 109.489 259.204 109.051 259.204 108.528C259.204 108.005 259.11 107.571 258.924 107.226C258.746 106.871 258.504 106.605 258.196 106.428C257.897 106.251 257.57 106.162 257.216 106.162C256.861 106.162 256.53 106.251 256.222 106.428C255.923 106.605 255.68 106.871 255.494 107.226C255.307 107.571 255.214 108.005 255.214 108.528C255.214 109.051 255.307 109.489 255.494 109.844C255.68 110.189 255.923 110.451 256.222 110.628C256.52 110.805 256.847 110.894 257.202 110.894ZM19.71 130.168C18.8327 130.168 18.1093 129.953 17.54 129.524C16.9707 129.095 16.644 128.525 16.56 127.816H18.058C18.1327 128.133 18.31 128.409 18.59 128.642C18.87 128.866 19.2387 128.978 19.696 128.978C20.144 128.978 20.4707 128.885 20.676 128.698C20.8813 128.511 20.984 128.297 20.984 128.054C20.984 127.699 20.8393 127.461 20.55 127.34C20.27 127.209 19.878 127.093 19.374 126.99C18.982 126.906 18.59 126.794 18.198 126.654C17.8153 126.514 17.4933 126.318 17.232 126.066C16.98 125.805 16.854 125.455 16.854 125.016C16.854 124.409 17.0873 123.905 17.554 123.504C18.0207 123.093 18.674 122.888 19.514 122.888C20.2887 122.888 20.914 123.075 21.39 123.448C21.8753 123.821 22.16 124.349 22.244 125.03H20.816C20.7693 124.731 20.6293 124.498 20.396 124.33C20.172 124.162 19.8687 124.078 19.486 124.078C19.1127 124.078 18.8233 124.157 18.618 124.316C18.4127 124.465 18.31 124.661 18.31 124.904C18.31 125.147 18.45 125.338 18.73 125.478C19.0193 125.618 19.3973 125.744 19.864 125.856C20.3307 125.959 20.76 126.08 21.152 126.22C21.5533 126.351 21.8753 126.547 22.118 126.808C22.3607 127.069 22.482 127.452 22.482 127.956C22.4913 128.591 22.244 129.118 21.74 129.538C21.2453 129.958 20.5687 130.168 19.71 130.168ZM30.4861 123.056V130H29.1701L29.0581 128.782C28.8434 129.211 28.5261 129.552 28.1061 129.804C27.6954 130.047 27.2194 130.168 26.6781 130.168C25.8381 130.168 25.1754 129.907 24.6901 129.384C24.2141 128.861 23.9761 128.082 23.9761 127.046V123.056H25.4461V126.892C25.4461 128.236 25.9967 128.908 27.0981 128.908C27.6487 128.908 28.1014 128.712 28.4561 128.32C28.8201 127.928 29.0021 127.368 29.0021 126.64V123.056H30.4861ZM39.1772 130.168C38.4959 130.168 37.8846 130.014 37.3432 129.706C36.8112 129.398 36.3912 128.973 36.0832 128.432C35.7846 127.881 35.6352 127.247 35.6352 126.528C35.6352 125.809 35.7846 125.179 36.0832 124.638C36.3912 124.087 36.8112 123.658 37.3432 123.35C37.8846 123.042 38.4959 122.888 39.1772 122.888C40.0359 122.888 40.7546 123.112 41.3332 123.56C41.9212 124.008 42.2992 124.615 42.4672 125.38H40.9132C40.8199 124.997 40.6146 124.699 40.2972 124.484C39.9799 124.269 39.6066 124.162 39.1772 124.162C38.8132 124.162 38.4772 124.255 38.1692 124.442C37.8612 124.619 37.6139 124.885 37.4272 125.24C37.2406 125.585 37.1472 126.015 37.1472 126.528C37.1472 127.041 37.2406 127.475 37.4272 127.83C37.6139 128.175 37.8612 128.441 38.1692 128.628C38.4772 128.815 38.8132 128.908 39.1772 128.908C39.6066 128.908 39.9799 128.801 40.2972 128.586C40.6146 128.371 40.8199 128.068 40.9132 127.676H42.4672C42.3086 128.423 41.9352 129.025 41.3472 129.482C40.7592 129.939 40.0359 130.168 39.1772 130.168ZM47.3247 130.168C46.662 130.168 46.0647 130.019 45.5327 129.72C45.01 129.412 44.5947 128.987 44.2867 128.446C43.9787 127.895 43.8247 127.256 43.8247 126.528C43.8247 125.8 43.9787 125.165 44.2867 124.624C44.604 124.073 45.0287 123.649 45.5607 123.35C46.0927 123.042 46.6853 122.888 47.3387 122.888C48.0013 122.888 48.594 123.042 49.1167 123.35C49.6487 123.649 50.0687 124.073 50.3767 124.624C50.694 125.165 50.8527 125.8 50.8527 126.528C50.8527 127.256 50.694 127.895 50.3767 128.446C50.0687 128.987 49.6487 129.412 49.1167 129.72C48.5847 130.019 47.9873 130.168 47.3247 130.168ZM47.3247 128.894C47.6793 128.894 48.006 128.805 48.3047 128.628C48.6127 128.451 48.86 128.189 49.0467 127.844C49.2333 127.489 49.3267 127.051 49.3267 126.528C49.3267 126.005 49.2333 125.571 49.0467 125.226C48.8693 124.871 48.6267 124.605 48.3187 124.428C48.02 124.251 47.6933 124.162 47.3387 124.162C46.984 124.162 46.6527 124.251 46.3447 124.428C46.046 124.605 45.8033 124.871 45.6167 125.226C45.43 125.571 45.3367 126.005 45.3367 126.528C45.3367 127.051 45.43 127.489 45.6167 127.844C45.8033 128.189 46.046 128.451 46.3447 128.628C46.6433 128.805 46.97 128.894 47.3247 128.894ZM52.4575 130V123.056H53.7735L53.8855 124.274C54.1002 123.845 54.4129 123.509 54.8235 123.266C55.2435 123.014 55.7242 122.888 56.2655 122.888C57.1055 122.888 57.7635 123.149 58.2395 123.672C58.7249 124.195 58.9675 124.974 58.9675 126.01V130H57.4975V126.164C57.4975 124.82 56.9469 124.148 55.8455 124.148C55.2949 124.148 54.8375 124.344 54.4735 124.736C54.1189 125.128 53.9415 125.688 53.9415 126.416V130H52.4575ZM63.6273 130C62.946 130 62.4047 129.837 62.0033 129.51C61.602 129.174 61.4013 128.581 61.4013 127.732V124.302H60.2113V123.056H61.4013L61.5833 121.292H62.8853V123.056H64.8453V124.302H62.8853V127.732C62.8853 128.115 62.9647 128.381 63.1233 128.53C63.2913 128.67 63.576 128.74 63.9773 128.74H64.7753V130H63.6273ZM69.4458 130.168C68.7644 130.168 68.1578 130.019 67.6258 129.72C67.1031 129.412 66.6924 128.987 66.3938 128.446C66.0951 127.905 65.9458 127.275 65.9458 126.556C65.9458 125.828 66.0904 125.189 66.3798 124.638C66.6784 124.087 67.0891 123.658 67.6118 123.35C68.1438 123.042 68.7598 122.888 69.4598 122.888C70.1411 122.888 70.7338 123.042 71.2378 123.35C71.7418 123.649 72.1338 124.05 72.4138 124.554C72.6938 125.058 72.8338 125.613 72.8338 126.22C72.8338 126.313 72.8291 126.416 72.8198 126.528C72.8198 126.631 72.8151 126.747 72.8058 126.878H67.4018C67.4484 127.55 67.6678 128.063 68.0598 128.418C68.4611 128.763 68.9231 128.936 69.4458 128.936C69.8658 128.936 70.2158 128.843 70.4958 128.656C70.7851 128.46 70.9998 128.199 71.1398 127.872H72.6238C72.4371 128.525 72.0638 129.071 71.5038 129.51C70.9531 129.949 70.2671 130.168 69.4458 130.168ZM69.4458 124.106C68.9511 124.106 68.5124 124.255 68.1298 124.554C67.7471 124.843 67.5138 125.282 67.4298 125.87H71.3498C71.3218 125.329 71.1304 124.899 70.7758 124.582C70.4211 124.265 69.9778 124.106 69.4458 124.106ZM74.3735 130V123.056H75.6895L75.8015 124.274C76.0162 123.845 76.3289 123.509 76.7395 123.266C77.1595 123.014 77.6402 122.888 78.1815 122.888C79.0215 122.888 79.6795 123.149 80.1555 123.672C80.6409 124.195 80.8835 124.974 80.8835 126.01V130H79.4135V126.164C79.4135 124.82 78.8629 124.148 77.7615 124.148C77.2109 124.148 76.7535 124.344 76.3895 124.736C76.0349 125.128 75.8575 125.688 75.8575 126.416V130H74.3735ZM83.4714 121.74C83.1914 121.74 82.958 121.656 82.7714 121.488C82.594 121.311 82.5054 121.091 82.5054 120.83C82.5054 120.569 82.594 120.354 82.7714 120.186C82.958 120.009 83.1914 119.92 83.4714 119.92C83.7514 119.92 83.98 120.009 84.1574 120.186C84.344 120.354 84.4374 120.569 84.4374 120.83C84.4374 121.091 84.344 121.311 84.1574 121.488C83.98 121.656 83.7514 121.74 83.4714 121.74ZM82.7294 130V123.056H84.2134V130H82.7294ZM89.3364 130.168C88.6644 130.168 88.0717 130.009 87.5584 129.692C87.045 129.375 86.6437 128.941 86.3544 128.39C86.065 127.839 85.9204 127.214 85.9204 126.514C85.9204 125.814 86.065 125.193 86.3544 124.652C86.6437 124.101 87.045 123.672 87.5584 123.364C88.081 123.047 88.6784 122.888 89.3504 122.888C89.901 122.888 90.3817 122.995 90.7924 123.21C91.2124 123.425 91.539 123.728 91.7724 124.12V119.92H93.2564V130H91.9264L91.7724 128.922C91.5484 129.249 91.2404 129.538 90.8484 129.79C90.4564 130.042 89.9524 130.168 89.3364 130.168ZM89.6024 128.88C90.237 128.88 90.755 128.661 91.1564 128.222C91.567 127.783 91.7724 127.219 91.7724 126.528C91.7724 125.828 91.567 125.263 91.1564 124.834C90.755 124.395 90.237 124.176 89.6024 124.176C88.9677 124.176 88.445 124.395 88.0344 124.834C87.6237 125.263 87.4184 125.828 87.4184 126.528C87.4184 126.985 87.5117 127.391 87.6984 127.746C87.885 128.101 88.1417 128.381 88.4684 128.586C88.8044 128.782 89.1824 128.88 89.6024 128.88ZM98.3755 130.168C97.7128 130.168 97.1155 130.019 96.5835 129.72C96.0608 129.412 95.6455 128.987 95.3375 128.446C95.0295 127.895 94.8755 127.256 94.8755 126.528C94.8755 125.8 95.0295 125.165 95.3375 124.624C95.6548 124.073 96.0795 123.649 96.6115 123.35C97.1435 123.042 97.7361 122.888 98.3895 122.888C99.0521 122.888 99.6448 123.042 100.167 123.35C100.699 123.649 101.119 124.073 101.427 124.624C101.745 125.165 101.903 125.8 101.903 126.528C101.903 127.256 101.745 127.895 101.427 128.446C101.119 128.987 100.699 129.412 100.167 129.72C99.6355 130.019 99.0381 130.168 98.3755 130.168ZM98.3755 128.894C98.7301 128.894 99.0568 128.805 99.3555 128.628C99.6635 128.451 99.9108 128.189 100.097 127.844C100.284 127.489 100.377 127.051 100.377 126.528C100.377 126.005 100.284 125.571 100.097 125.226C99.9201 124.871 99.6775 124.605 99.3695 124.428C99.0708 124.251 98.7441 124.162 98.3895 124.162C98.0348 124.162 97.7035 124.251 97.3955 124.428C97.0968 124.605 96.8541 124.871 96.6675 125.226C96.4808 125.571 96.3875 126.005 96.3875 126.528C96.3875 127.051 96.4808 127.489 96.6675 127.844C96.8541 128.189 97.0968 128.451 97.3955 128.628C97.6941 128.805 98.0208 128.894 98.3755 128.894ZM107.036 130V123.056H108.352L108.478 124.036C108.702 123.681 108.996 123.401 109.36 123.196C109.733 122.991 110.162 122.888 110.648 122.888C111.749 122.888 112.514 123.322 112.944 124.19C113.196 123.789 113.532 123.471 113.952 123.238C114.381 123.005 114.843 122.888 115.338 122.888C116.206 122.888 116.887 123.149 117.382 123.672C117.876 124.195 118.124 124.974 118.124 126.01V130H116.64V126.164C116.64 124.82 116.126 124.148 115.1 124.148C114.577 124.148 114.148 124.344 113.812 124.736C113.485 125.128 113.322 125.688 113.322 126.416V130H111.838V126.164C111.838 124.82 111.32 124.148 110.284 124.148C109.77 124.148 109.346 124.344 109.01 124.736C108.683 125.128 108.52 125.688 108.52 126.416V130H107.036ZM120.7 121.74C120.42 121.74 120.187 121.656 120 121.488C119.823 121.311 119.734 121.091 119.734 120.83C119.734 120.569 119.823 120.354 120 120.186C120.187 120.009 120.42 119.92 120.7 119.92C120.98 119.92 121.209 120.009 121.386 120.186C121.573 120.354 121.666 120.569 121.666 120.83C121.666 121.091 121.573 121.311 121.386 121.488C121.209 121.656 120.98 121.74 120.7 121.74ZM119.958 130V123.056H121.442V130H119.958ZM126.649 130.168C125.968 130.168 125.361 130.019 124.829 129.72C124.306 129.412 123.896 128.987 123.597 128.446C123.298 127.905 123.149 127.275 123.149 126.556C123.149 125.828 123.294 125.189 123.583 124.638C123.882 124.087 124.292 123.658 124.815 123.35C125.347 123.042 125.963 122.888 126.663 122.888C127.344 122.888 127.937 123.042 128.441 123.35C128.945 123.649 129.337 124.05 129.617 124.554C129.897 125.058 130.037 125.613 130.037 126.22C130.037 126.313 130.032 126.416 130.023 126.528C130.023 126.631 130.018 126.747 130.009 126.878H124.605C124.652 127.55 124.871 128.063 125.263 128.418C125.664 128.763 126.126 128.936 126.649 128.936C127.069 128.936 127.419 128.843 127.699 128.656C127.988 128.46 128.203 128.199 128.343 127.872H129.827C129.64 128.525 129.267 129.071 128.707 129.51C128.156 129.949 127.47 130.168 126.649 130.168ZM126.649 124.106C126.154 124.106 125.716 124.255 125.333 124.554C124.95 124.843 124.717 125.282 124.633 125.87H128.553C128.525 125.329 128.334 124.899 127.979 124.582C127.624 124.265 127.181 124.106 126.649 124.106ZM131.577 130V123.056H132.893L133.005 124.274C133.219 123.845 133.532 123.509 133.943 123.266C134.363 123.014 134.843 122.888 135.385 122.888C136.225 122.888 136.883 123.149 137.359 123.672C137.844 124.195 138.087 124.974 138.087 126.01V130H136.617V126.164C136.617 124.82 136.066 124.148 134.965 124.148C134.414 124.148 133.957 124.344 133.593 124.736C133.238 125.128 133.061 125.688 133.061 126.416V130H131.577ZM142.746 130C142.065 130 141.524 129.837 141.122 129.51C140.721 129.174 140.52 128.581 140.52 127.732V124.302H139.33V123.056H140.52L140.702 121.292H142.004V123.056H143.964V124.302H142.004V127.732C142.004 128.115 142.084 128.381 142.242 128.53C142.41 128.67 142.695 128.74 143.096 128.74H143.894V130H142.746ZM145.495 130V123.056H146.825L146.951 124.372C147.193 123.915 147.529 123.555 147.959 123.294C148.397 123.023 148.925 122.888 149.541 122.888V124.442H149.135C148.724 124.442 148.355 124.512 148.029 124.652C147.711 124.783 147.455 125.011 147.259 125.338C147.072 125.655 146.979 126.099 146.979 126.668V130H145.495ZM153.165 130.168C152.577 130.168 152.092 130.07 151.709 129.874C151.326 129.678 151.042 129.421 150.855 129.104C150.668 128.777 150.575 128.423 150.575 128.04C150.575 127.368 150.836 126.836 151.359 126.444C151.882 126.052 152.628 125.856 153.599 125.856H155.419V125.73C155.419 125.189 155.27 124.783 154.971 124.512C154.682 124.241 154.304 124.106 153.837 124.106C153.426 124.106 153.067 124.209 152.759 124.414C152.46 124.61 152.278 124.904 152.213 125.296H150.729C150.776 124.792 150.944 124.363 151.233 124.008C151.532 123.644 151.905 123.369 152.353 123.182C152.81 122.986 153.31 122.888 153.851 122.888C154.822 122.888 155.573 123.145 156.105 123.658C156.637 124.162 156.903 124.853 156.903 125.73V130H155.615L155.489 128.81C155.293 129.193 155.008 129.515 154.635 129.776C154.262 130.037 153.772 130.168 153.165 130.168ZM153.459 128.964C153.86 128.964 154.196 128.871 154.467 128.684C154.747 128.488 154.962 128.231 155.111 127.914C155.27 127.597 155.368 127.247 155.405 126.864H153.753C153.165 126.864 152.745 126.967 152.493 127.172C152.25 127.377 152.129 127.634 152.129 127.942C152.129 128.259 152.246 128.511 152.479 128.698C152.722 128.875 153.048 128.964 153.459 128.964ZM161.405 130.168C160.528 130.168 159.805 129.953 159.235 129.524C158.666 129.095 158.339 128.525 158.255 127.816H159.753C159.828 128.133 160.005 128.409 160.285 128.642C160.565 128.866 160.934 128.978 161.391 128.978C161.839 128.978 162.166 128.885 162.371 128.698C162.577 128.511 162.679 128.297 162.679 128.054C162.679 127.699 162.535 127.461 162.245 127.34C161.965 127.209 161.573 127.093 161.069 126.99C160.677 126.906 160.285 126.794 159.893 126.654C159.511 126.514 159.189 126.318 158.927 126.066C158.675 125.805 158.549 125.455 158.549 125.016C158.549 124.409 158.783 123.905 159.249 123.504C159.716 123.093 160.369 122.888 161.209 122.888C161.984 122.888 162.609 123.075 163.085 123.448C163.571 123.821 163.855 124.349 163.939 125.03H162.511C162.465 124.731 162.325 124.498 162.091 124.33C161.867 124.162 161.564 124.078 161.181 124.078C160.808 124.078 160.519 124.157 160.313 124.316C160.108 124.465 160.005 124.661 160.005 124.904C160.005 125.147 160.145 125.338 160.425 125.478C160.715 125.618 161.093 125.744 161.559 125.856C162.026 125.959 162.455 126.08 162.847 126.22C163.249 126.351 163.571 126.547 163.813 126.808C164.056 127.069 164.177 127.452 164.177 127.956C164.187 128.591 163.939 129.118 163.435 129.538C162.941 129.958 162.264 130.168 161.405 130.168ZM172.097 130.168C171.219 130.168 170.496 129.953 169.927 129.524C169.357 129.095 169.031 128.525 168.947 127.816H170.445C170.519 128.133 170.697 128.409 170.977 128.642C171.257 128.866 171.625 128.978 172.083 128.978C172.531 128.978 172.857 128.885 173.063 128.698C173.268 128.511 173.371 128.297 173.371 128.054C173.371 127.699 173.226 127.461 172.937 127.34C172.657 127.209 172.265 127.093 171.761 126.99C171.369 126.906 170.977 126.794 170.585 126.654C170.202 126.514 169.88 126.318 169.619 126.066C169.367 125.805 169.241 125.455 169.241 125.016C169.241 124.409 169.474 123.905 169.941 123.504C170.407 123.093 171.061 122.888 171.901 122.888C172.675 122.888 173.301 123.075 173.777 123.448C174.262 123.821 174.547 124.349 174.631 125.03H173.203C173.156 124.731 173.016 124.498 172.783 124.33C172.559 124.162 172.255 124.078 171.873 124.078C171.499 124.078 171.21 124.157 171.005 124.316C170.799 124.465 170.697 124.661 170.697 124.904C170.697 125.147 170.837 125.338 171.117 125.478C171.406 125.618 171.784 125.744 172.251 125.856C172.717 125.959 173.147 126.08 173.539 126.22C173.94 126.351 174.262 126.547 174.505 126.808C174.747 127.069 174.869 127.452 174.869 127.956C174.878 128.591 174.631 129.118 174.127 129.538C173.632 129.958 172.955 130.168 172.097 130.168ZM179.737 130.168C179.055 130.168 178.449 130.019 177.917 129.72C177.394 129.412 176.983 128.987 176.685 128.446C176.386 127.905 176.237 127.275 176.237 126.556C176.237 125.828 176.381 125.189 176.671 124.638C176.969 124.087 177.38 123.658 177.903 123.35C178.435 123.042 179.051 122.888 179.751 122.888C180.432 122.888 181.025 123.042 181.529 123.35C182.033 123.649 182.425 124.05 182.705 124.554C182.985 125.058 183.125 125.613 183.125 126.22C183.125 126.313 183.12 126.416 183.111 126.528C183.111 126.631 183.106 126.747 183.097 126.878H177.693C177.739 127.55 177.959 128.063 178.351 128.418C178.752 128.763 179.214 128.936 179.737 128.936C180.157 128.936 180.507 128.843 180.787 128.656C181.076 128.46 181.291 128.199 181.431 127.872H182.915C182.728 128.525 182.355 129.071 181.795 129.51C181.244 129.949 180.558 130.168 179.737 130.168ZM179.737 124.106C179.242 124.106 178.803 124.255 178.421 124.554C178.038 124.843 177.805 125.282 177.721 125.87H181.641C181.613 125.329 181.421 124.899 181.067 124.582C180.712 124.265 180.269 124.106 179.737 124.106ZM190.544 130.168C189.956 130.168 189.471 130.07 189.088 129.874C188.705 129.678 188.421 129.421 188.234 129.104C188.047 128.777 187.954 128.423 187.954 128.04C187.954 127.368 188.215 126.836 188.738 126.444C189.261 126.052 190.007 125.856 190.978 125.856H192.798V125.73C192.798 125.189 192.649 124.783 192.35 124.512C192.061 124.241 191.683 124.106 191.216 124.106C190.805 124.106 190.446 124.209 190.138 124.414C189.839 124.61 189.657 124.904 189.592 125.296H188.108C188.155 124.792 188.323 124.363 188.612 124.008C188.911 123.644 189.284 123.369 189.732 123.182C190.189 122.986 190.689 122.888 191.23 122.888C192.201 122.888 192.952 123.145 193.484 123.658C194.016 124.162 194.282 124.853 194.282 125.73V130H192.994L192.868 128.81C192.672 129.193 192.387 129.515 192.014 129.776C191.641 130.037 191.151 130.168 190.544 130.168ZM190.838 128.964C191.239 128.964 191.575 128.871 191.846 128.684C192.126 128.488 192.341 128.231 192.49 127.914C192.649 127.597 192.747 127.247 192.784 126.864H191.132C190.544 126.864 190.124 126.967 189.872 127.172C189.629 127.377 189.508 127.634 189.508 127.942C189.508 128.259 189.625 128.511 189.858 128.698C190.101 128.875 190.427 128.964 190.838 128.964ZM199.302 130.168C198.621 130.168 198.01 130.014 197.468 129.706C196.936 129.398 196.516 128.973 196.208 128.432C195.91 127.881 195.76 127.247 195.76 126.528C195.76 125.809 195.91 125.179 196.208 124.638C196.516 124.087 196.936 123.658 197.468 123.35C198.01 123.042 198.621 122.888 199.302 122.888C200.161 122.888 200.88 123.112 201.458 123.56C202.046 124.008 202.424 124.615 202.592 125.38H201.038C200.945 124.997 200.74 124.699 200.422 124.484C200.105 124.269 199.732 124.162 199.302 124.162C198.938 124.162 198.602 124.255 198.294 124.442C197.986 124.619 197.739 124.885 197.552 125.24C197.366 125.585 197.272 126.015 197.272 126.528C197.272 127.041 197.366 127.475 197.552 127.83C197.739 128.175 197.986 128.441 198.294 128.628C198.602 128.815 198.938 128.908 199.302 128.908C199.732 128.908 200.105 128.801 200.422 128.586C200.74 128.371 200.945 128.068 201.038 127.676H202.592C202.434 128.423 202.06 129.025 201.472 129.482C200.884 129.939 200.161 130.168 199.302 130.168ZM206.977 130C206.296 130 205.754 129.837 205.353 129.51C204.952 129.174 204.751 128.581 204.751 127.732V124.302H203.561V123.056H204.751L204.933 121.292H206.235V123.056H208.195V124.302H206.235V127.732C206.235 128.115 206.314 128.381 206.473 128.53C206.641 128.67 206.926 128.74 207.327 128.74H208.125V130H206.977ZM216.109 123.056V130H214.793L214.681 128.782C214.466 129.211 214.149 129.552 213.729 129.804C213.318 130.047 212.842 130.168 212.301 130.168C211.461 130.168 210.798 129.907 210.313 129.384C209.837 128.861 209.599 128.082 209.599 127.046V123.056H211.069V126.892C211.069 128.236 211.62 128.908 212.721 128.908C213.272 128.908 213.724 128.712 214.079 128.32C214.443 127.928 214.625 127.368 214.625 126.64V123.056H216.109ZM220.335 130.168C219.747 130.168 219.262 130.07 218.879 129.874C218.496 129.678 218.212 129.421 218.025 129.104C217.838 128.777 217.745 128.423 217.745 128.04C217.745 127.368 218.006 126.836 218.529 126.444C219.052 126.052 219.798 125.856 220.769 125.856H222.589V125.73C222.589 125.189 222.44 124.783 222.141 124.512C221.852 124.241 221.474 124.106 221.007 124.106C220.596 124.106 220.237 124.209 219.929 124.414C219.63 124.61 219.448 124.904 219.383 125.296H217.899C217.946 124.792 218.114 124.363 218.403 124.008C218.702 123.644 219.075 123.369 219.523 123.182C219.98 122.986 220.48 122.888 221.021 122.888C221.992 122.888 222.743 123.145 223.275 123.658C223.807 124.162 224.073 124.853 224.073 125.73V130H222.785L222.659 128.81C222.463 129.193 222.178 129.515 221.805 129.776C221.432 130.037 220.942 130.168 220.335 130.168ZM220.629 128.964C221.03 128.964 221.366 128.871 221.637 128.684C221.917 128.488 222.132 128.231 222.281 127.914C222.44 127.597 222.538 127.247 222.575 126.864H220.923C220.335 126.864 219.915 126.967 219.663 127.172C219.42 127.377 219.299 127.634 219.299 127.942C219.299 128.259 219.416 128.511 219.649 128.698C219.892 128.875 220.218 128.964 220.629 128.964ZM225.803 130V119.92H227.287V130H225.803ZM230.007 121.74C229.727 121.74 229.493 121.656 229.307 121.488C229.129 121.311 229.041 121.091 229.041 120.83C229.041 120.569 229.129 120.354 229.307 120.186C229.493 120.009 229.727 119.92 230.007 119.92C230.287 119.92 230.515 120.009 230.693 120.186C230.879 120.354 230.973 120.569 230.973 120.83C230.973 121.091 230.879 121.311 230.693 121.488C230.515 121.656 230.287 121.74 230.007 121.74ZM229.265 130V123.056H230.749V130H229.265ZM232.246 130V128.796L235.956 124.288H232.302V123.056H237.636V124.26L233.898 128.768H237.706V130H232.246ZM241.581 130.168C240.993 130.168 240.508 130.07 240.125 129.874C239.742 129.678 239.458 129.421 239.271 129.104C239.084 128.777 238.991 128.423 238.991 128.04C238.991 127.368 239.252 126.836 239.775 126.444C240.298 126.052 241.044 125.856 242.015 125.856H243.835V125.73C243.835 125.189 243.686 124.783 243.387 124.512C243.098 124.241 242.72 124.106 242.253 124.106C241.842 124.106 241.483 124.209 241.175 124.414C240.876 124.61 240.694 124.904 240.629 125.296H239.145C239.192 124.792 239.36 124.363 239.649 124.008C239.948 123.644 240.321 123.369 240.769 123.182C241.226 122.986 241.726 122.888 242.267 122.888C243.238 122.888 243.989 123.145 244.521 123.658C245.053 124.162 245.319 124.853 245.319 125.73V130H244.031L243.905 128.81C243.709 129.193 243.424 129.515 243.051 129.776C242.678 130.037 242.188 130.168 241.581 130.168ZM241.875 128.964C242.276 128.964 242.612 128.871 242.883 128.684C243.163 128.488 243.378 128.231 243.527 127.914C243.686 127.597 243.784 127.247 243.821 126.864H242.169C241.581 126.864 241.161 126.967 240.909 127.172C240.666 127.377 240.545 127.634 240.545 127.942C240.545 128.259 240.662 128.511 240.895 128.698C241.138 128.875 241.464 128.964 241.875 128.964ZM247.049 130V123.056H248.365L248.477 124.274C248.692 123.845 249.005 123.509 249.415 123.266C249.835 123.014 250.316 122.888 250.857 122.888C251.697 122.888 252.355 123.149 252.831 123.672C253.317 124.195 253.559 124.974 253.559 126.01V130H252.089V126.164C252.089 124.82 251.539 124.148 250.437 124.148C249.887 124.148 249.429 124.344 249.065 124.736C248.711 125.128 248.533 125.688 248.533 126.416V130H247.049ZM255.895 130.084C255.615 130.084 255.382 129.995 255.195 129.818C255.018 129.631 254.929 129.412 254.929 129.16C254.929 128.899 255.018 128.679 255.195 128.502C255.382 128.315 255.615 128.222 255.895 128.222C256.175 128.222 256.404 128.315 256.581 128.502C256.758 128.679 256.847 128.899 256.847 129.16C256.847 129.412 256.758 129.631 256.581 129.818C256.404 129.995 256.175 130.084 255.895 130.084Z" fill="#808080"/>
<path d="M38 29.08V30C37.9988 32.1564 37.3005 34.2547 36.0093 35.9818C34.7182 37.709 32.9033 38.9725 30.8354 39.5839C28.7674 40.1953 26.5573 40.1219 24.5345 39.3746C22.5117 38.6273 20.7847 37.2461 19.611 35.4371C18.4373 33.628 17.8798 31.4881 18.0217 29.3363C18.1636 27.1846 18.9972 25.1363 20.3983 23.4971C21.7994 21.8578 23.6928 20.7154 25.7962 20.2401C27.8996 19.7649 30.1003 19.9823 32.07 20.86" stroke="#F7931A" stroke-width="2" stroke-linecap="round" stroke-linejoin="round"/>
<path d="M38 22L28 32.01L25 29.01" stroke="#F7931A" stroke-width="2" stroke-linecap="round" stroke-linejoin="round"/>
<defs>
<filter id="filter0_d_83_197" x="-8" y="0" width="304" height="168" filterUnits="userSpaceOnUse" color-interpolation-filters="sRGB">
<feFlood flood-opacity="0" result="BackgroundImageFix"/>
<feColorMatrix in="SourceAlpha" type="matrix" values="0 0 0 0 0 0 0 0 0 0 0 0 0 0 0 0 0 0 127 0" result="hardAlpha"/>
<feOffset dy="4"/>
<feGaussianBlur stdDeviation="4"/>
<feColorMatrix type="matrix" values="0 0 0 0 0 0 0 0 0 0 0 0 0 0 0 0 0 0 0.16 0"/>
<feBlend mode="normal" in2="BackgroundImageFix" result="effect1_dropShadow_83_197"/>
<feBlend mode="normal" in="SourceGraphic" in2="effect1_dropShadow_83_197" result="shape"/>
</filter>
</defs>
</svg>
